<?xml version="1.0" encoding="UTF-8" standalone="no"?>
<svg
   xmlns:dc="http://purl.org/dc/elements/1.1/"
   xmlns:cc="http://creativecommons.org/ns#"
   xmlns:rdf="http://www.w3.org/1999/02/22-rdf-syntax-ns#"
   xmlns:svg="http://www.w3.org/2000/svg"
   xmlns="http://www.w3.org/2000/svg"
   xmlns:sodipodi="http://sodipodi.sourceforge.net/DTD/sodipodi-0.dtd"
   xmlns:inkscape="http://www.inkscape.org/namespaces/inkscape"
   inkscape:version="1.0beta2 (2b71d25, 2019-12-03)"
   sodipodi:docname="Georgia.svg"
   id="svg1166"
   version="1.1"
   height="223.40005"
   width="206.31064">
  <metadata
     id="metadata1172">
    <rdf:RDF>
      <cc:Work
         rdf:about="">
        <dc:format>image/svg+xml</dc:format>
        <dc:type
           rdf:resource="http://purl.org/dc/dcmitype/StillImage" />
        <dc:title></dc:title>
      </cc:Work>
    </rdf:RDF>
  </metadata>
  <defs
     id="defs1170" />
  <sodipodi:namedview
     inkscape:current-layer="svg1166"
     inkscape:window-maximized="0"
     inkscape:window-y="23"
     inkscape:window-x="0"
     inkscape:cy="80.435202"
     inkscape:cx="92.97904"
     inkscape:zoom="0.2631076"
     lock-margins="false"
     showgrid="false"
     id="namedview1168"
     inkscape:window-height="830"
     inkscape:window-width="1402"
     inkscape:pageshadow="2"
     inkscape:pageopacity="0"
     guidetolerance="10"
     gridtolerance="10"
     objecttolerance="10"
     borderopacity="1"
     inkscape:document-rotation="0"
     bordercolor="#666666"
     pagecolor="#ffffff" />
  <g
     id="g994">
    <path
       d="m101.77444,7.70815l-0.97939,3.67467l-3.5718,2.53284l-2.70327,4.43521l-0.77587,3.49176l-11.79583,-3.99284l3.197,-8.26152l2.4813,-0.28567l14.14786,-1.59445"
       id="GA_Rabun" />
    <path
       d="m70.51742,11.06754l14.62786,-1.47927l-3.197,8.26152l-1.03111,1.14207l-3.71448,0.66956l-0.11119,-1.17773l-1.24154,-3.30155l-1.08488,-0.68473l-1.1056,0.03473l-2.25143,-1.4056l-1.15598,-1.2091l0.26535,-0.8499"
       id="GA_Towns" />
    <path
       d="m81.86493,176.62298l1.1729,17.07233l-4.49915,0.32018l-10.3342,0.8098l-5.23088,0.41476l0.11815,-1.94957l0.66623,-1.57076l0.23167,-0.3301l5.04996,-6.60191l4.95426,-3.5147l2.22869,-4.0144l5.64238,-0.63563"
       id="GA_Mitchell" />
    <path
       d="m64.7726,178.33434l11.44995,-1.07573l-2.22869,4.0144l-4.95426,3.5147l-5.04996,6.60191l-0.23167,0.3301l-0.66622,1.57076l-0.11815,1.94957l-1.37864,0.06981l-4.57297,-8.05955l-0.45614,-8.16483l8.20675,-0.75114"
       id="GA_Baker" />
    <path
       d="m57.022,187.25031l4.57297,8.05955l-7.45157,1.03043l-7.64173,0.41393l-0.43916,-8.55141l8.45765,-0.44692l2.49691,-0.39356l0.00492,-0.11202"
       id="GA_Miller" />
    <path
       d="m49.11026,176.49582l7.45559,2.58966l0.45614,8.16483l-0.00492,0.11202l-2.49691,0.39356l-8.45765,0.44692l0.43916,8.55141l-3.95962,0.15201l-0.38919,-0.9474l-0.27296,-0.5441l-1.79148,-2.15285l-0.29261,-0.09609l-0.34323,-0.01507l-0.33466,-0.21016l-0.36327,-0.96075l-0.4077,-3.33012l0.32755,-1.19467l0.47695,-1.21708l0.92728,-9.91046l0.79628,1.48654l0.9003,-0.05824l0.77673,-0.21205l1.10999,-0.38206l5.44824,-0.66585"
       id="GA_Early" />
    <path
       d="m46.50167,196.75422l7.64173,-0.41393l-0.7723,1.67832l0.41091,6.96829l-0.41082,2.34939l-1.34354,2.23968l-1.6088,0.94296l-0.62367,1.17807l-0.0936,0.73073l0.38195,0.94708l-0.05058,-0.00222l-6.472,-13.04064l-1.01889,-3.42572l3.95962,-0.15201"
       id="GA_Seminole" />
    <path
       d="m68.20448,194.82529l1.2474,18.09642l-19.36835,0.4531l-0.38196,-0.94708l0.0936,-0.73073l0.62367,-1.17807l1.6088,-0.94296l1.34354,-2.23968l0.41082,-2.34939l-0.41091,-6.96829l0.77231,-1.67832l7.45156,-1.03043l1.37864,-0.06981l5.23088,-0.41476"
       id="GA_Decatur" />
    <path
       d="m78.53869,194.01549l0.29046,4.59919l0.5331,1.29761l0.50539,0.69187l0.76123,0.80083l0.7535,11.20413l-7.92595,0.20961l-4.00453,0.10298l-1.2474,-18.09642l10.3342,-0.8098"
       id="GA_Grady" />
    <path
       d="m83.03784,193.69531l10.7749,0.94349l1.22024,17.64273l-10.58499,0.25581l-3.06562,0.07178l-0.7535,-11.20413l-0.76123,-0.80083l-0.50539,-0.69187l-0.5331,-1.29761l-0.29046,-4.59919l4.49915,-0.32018"
       id="GA_Thomas" />
    <path
       d="m104.2226,194.00246l3.17294,9.3592l-1.08687,1.09257l-1.26711,2.39506l-0.03636,0.16856l1.41631,2.28839l0.62547,0.51253l3.51336,2.0981l-10.21932,0.25375l-5.30805,0.11091l-1.22024,-17.64273l6.26064,-2.43293l4.14922,1.79659"
       id="GA_Brooks" />
    <path
       d="m101.53662,180.39315l-1.46324,11.81272l-6.26064,2.43293l-10.7749,-0.94349l-0.82372,-11.99635l13.70035,-0.96614l5.62215,-0.33967"
       id="GA_Colquitt" />
    <path
       d="m104.55199,179.0739l-0.06438,1.46686l0.22448,0.74108l0.24022,0.3834l2.09048,1.60849l0.62211,0.25897l2.9494,7.11228l0.80135,2.93833l-7.19306,0.41915l-4.14922,-1.79659l1.46324,-11.81272l3.01538,-1.31925"
       id="GA_Cook" />
    <path
       d="m120.59986,185.4072l3.00365,-0.3098l1.36286,14.64084l-1.82565,1.09998l-0.39576,-2.52961l-0.96201,-1.91734l-5.44577,0.36191l-1.04009,-3.43752l-0.12054,-1.37723l0.89516,-4.39511l5.04789,-0.45177l0.03683,-0.17937l-0.20639,-0.82355l-0.35018,-0.68143"
       id="GA_Lanier" />
    <path
       d="m111.41566,193.58331l3.88144,-0.26765l1.04009,3.43752l5.44576,-0.36191l0.96201,1.91734l0.39576,2.52961l-3.7064,10.87807l-6.94336,0.17309l-1.93062,0.02749l-3.51336,-2.0981l-0.62547,-0.51253l-1.41631,-2.28839l0.03636,-0.16856l1.26711,-2.39506l1.08687,-1.09257l-3.17294,-9.3592l7.19306,-0.41915"
       id="GA_Lowndes" />
    <path
       d="m124.96637,199.73824l5.12122,1.17681l0.42319,0.74979l0.51379,1.65513l1.08588,1.32188l0.55753,0.32854l1.04544,0.34634l1.49877,-0.003l0.8034,-0.07696l1.58043,0.03316l2.61588,0.27771l0.68838,0.31619l0.3869,0.42241l0.13389,0.24841l0.23924,4.61141l-4.24802,0.12487l-17.97797,0.44536l3.7064,-10.87807l1.82565,-1.09998"
       id="GA_Echols" />
    <path
       d="m123.60351,185.0974l11.88856,-1.08908l3.29896,6.24073l1.30858,1.44386l2.41144,1.96647l3.99452,6.31107l0.58056,5.41193l0.58456,4.16684l0.6221,1.41373l-1.63453,0.0441l-4.99796,0.13901l-0.23924,-4.61141l-0.13389,-0.24841l-0.3869,-0.42241l-0.68838,-0.31619l-2.61588,-0.27771l-1.58043,-0.03316l-0.80339,0.07696l-1.49877,0.003l-1.04545,-0.34634l-0.55752,-0.32854l-1.08588,-1.32188l-0.51379,-1.65513l-0.42319,-0.74979l-5.12123,-1.17681l-1.36286,-14.64084"
       id="GA_Clinch" />
    <path
       d="m136.37682,175.4788l-0.88476,8.52952l-11.88856,1.08908l-3.00364,0.3098l-0.28636,-1.97094l-0.79327,-4.27736l-1.74871,-1.47766l-1.76406,-2.0358l-0.05978,-0.12208l-0.04902,-0.78043l7.20113,-0.52016l5.21667,1.31132l0.58788,0.6267l7.47248,-0.68199"
       id="GA_Atkinson" />
    <path
       d="m115.44534,172.37008l0.45332,2.37285l0.04902,0.78043l0.05979,0.12208l1.76406,2.0358l1.74871,1.47766l0.79327,4.27736l0.28636,1.97094l0.35018,0.68143l0.20639,0.82355l-0.03683,0.17937l-5.04789,0.45177l-0.89516,4.39511l0.12054,1.37723l-3.88144,0.26765l-0.80135,-2.93833l-2.9494,-7.11228l-0.62212,-0.25897l-2.09048,-1.60849l-0.24021,-0.3834l-0.22448,-0.74108l0.06438,-1.46686l3.27328,-6.20568l7.62007,-0.49814"
       id="GA_Berrien" />
    <path
       d="m120.40097,162.47353l-4.95562,9.89655l-7.62007,0.49814l-6.89808,-4.90004l1.20366,-7.79515l3.26156,-0.2478l2.0849,3.38562l2.44575,1.01956l3.51963,-0.18942l2.29437,-0.97442l4.6639,-0.69304"
       id="GA_Irwin" />
    <path
       d="m95.14032,169.66897l5.78688,-1.70079l6.89807,4.90004l-3.27328,6.20568l-3.01537,1.31925l-5.62216,0.33967l-0.77415,-11.06385"
       id="GA_Tift" />
    <path
       d="m82.60131,157.61815l5.55821,1.61226l0.17196,0.12339l0.21195,1.85185l0.56885,6.42137l3.10854,-0.22558l0.338,0.13431l1.1508,0.83239l1.4307,1.30083l0.77415,11.06385l-13.70035,0.96614l-0.34918,-5.07598l-1.60811,-9.54753l2.34448,-9.4573"
       id="GA_Worth" />
    <path
       d="m69.3254,169.28529l10.93142,-2.20984l1.60811,9.54753l-5.64238,0.63563l-11.44995,1.07573l-1.46322,-8.56015l6.01602,-0.4889"
       id="GA_Dougherty" />
    <path
       d="m59.49075,170.09528l3.81863,-0.32109l1.46322,8.56015l-8.20675,0.75114l-7.45559,-2.58966l-0.32903,-5.53482l10.70952,-0.86572"
       id="GA_Calhoun" />
    <path
       d="m35.57425,164.39763l7.11594,-0.39357l0.87322,7.1305l5.21783,-0.17356l0.32903,5.53482l-5.44824,0.66585l-1.10999,0.38206l-0.77673,0.21205l-0.9003,0.05824l-0.79628,-1.48654l-3.85798,-10.98926l-0.6465,-0.94059"
       id="GA_Clay" />
    <path
       d="m37.85232,154.47406l6.36778,2.54916l-1.52991,6.98084l-7.11594,0.39357l2.27807,-9.92357"
       id="GA_Quitman" />
    <path
       d="m54.13272,156.499l2.20825,-0.16734l0.38109,6.90543l1.3595,0.61351l1.63248,3.38389l0.06014,1.59902l-0.17019,0.90836l-0.11324,0.35341l-10.70951,0.86572l-5.21673,0.14845l-0.87432,-7.10539l1.52991,-6.98084l9.91262,-0.52422"
       id="GA_Randolph" />
    <path
       d="m68.78839,166.0979l0.53701,3.18739l-6.01602,0.4889l-3.81863,0.32109l0.11324,-0.35341l0.17019,-0.90836l-0.06014,-1.59902l-1.63248,-3.38389l-1.3595,-0.61351l-0.38109,-6.90543l5.95694,-2.68879l4.50221,4.06369l1.98828,8.39134l-0.00001,0z"
       id="GA_Terrell" />
    <path
       d="m83.02683,154.60333l-0.42552,3.01482l-2.34449,9.4573l-10.93142,2.20984l-0.53701,-3.18739l-1.98828,-8.39134l-0.15107,-2.00122l16.37779,-1.10201"
       id="GA_Lee" />
    <path
       d="m81.04222,149.18047l13.8383,-1.05781l0.58858,8.11635l-7.30959,2.9914l-5.55821,-1.61226l0.42553,-3.01482l-1.98461,-5.42286"
       id="GA_Crisp" />
    <path
       d="m95.46911,156.23901l5.22622,-0.14347l1.43553,4.07749l-1.20366,7.79515l-5.78688,1.70079l-1.4307,-1.30083l-1.1508,-0.83239l-0.338,-0.13431l-3.10854,0.22558l-0.56885,-6.42137l-0.21195,-1.85185l-0.17196,-0.12339l7.30959,-2.9914"
       id="GA_Turner" />
    <path
       d="m100.69533,156.09554l11.90694,-1.09553l7.44589,2.48065l0.35281,4.99287l-4.6639,0.69304l-2.29437,0.97442l-3.51963,0.18942l-2.44575,-1.01956l-2.0849,-3.38562l-3.26156,0.2478l-1.43553,-4.07749"
       id="GA_Ben Hill" />
    <path
       d="m120.04815,157.48066l6.11903,-2.25815l0.62025,6.73494l8.258,-0.84662l0.47238,5.32029l1.27529,-0.10692l0.3582,4.12794l-0.77447,5.02666l-7.47248,0.68199l-0.58788,-0.6267l-5.21667,-1.31132l-7.20113,0.52016l-0.45332,-2.37285l4.95562,-9.89655l-0.35282,-4.99287"
       id="GA_Coffee" />
    <path
       d="m139.04311,158.93696l2.95407,1.80929l1.81129,1.04239l2.59303,0.79797l4.41459,2.43087l0.37526,0.44l0.31029,0.6833l-0.50931,0.05729l-2.2225,1.97667l0.1112,1.17773l-1.57214,1.92195l-2.93682,0.93175l-7.22077,-1.75403l-0.3582,-4.12794l-1.27529,0.10692l-0.47238,-5.32029l3.99768,-2.17387"
       id="GA_Bacon" />
    <path
       d="m157.11482,151.65407l3.31083,1.434l13.26859,10.35614l1.9724,3.80421l-3.61209,6.17271l-1.38194,-0.67967l-1.55226,-0.59301l-1.8891,0.64831l-2.85394,0.69284l-4.36542,-0.49927l-0.41052,-0.29675l-4.10989,-4.17677l-1.45485,-14.02949l1.58849,-2.37736l1.4897,-0.45589"
       id="GA_Wayne" />
    <path
       d="m151.50164,166.14078l3.98985,2.37603l4.10989,4.17677l2.22101,2.84136l-0.13818,1.00391l-0.54957,0.5623l-6.72238,4.1285l-0.11562,-0.00508l-3.64198,-0.65215l-6.28259,-8.36625l2.93682,-0.93175l1.57214,-1.92195l-0.1112,-1.17773l2.2225,-1.97667l0.50931,-0.05729"
       id="GA_Pierce" />
    <path
       d="m172.05456,173.42113l-0.59754,7.59369l-2.31943,3.11269l-2.56412,0.68747l-0.71519,0.29441l-0.26296,0.38302l-0.27426,1.87757l-5.09153,-0.78093l-0.48039,3.11014l-2.02824,0.18971l-7.06624,-9.31648l3.64198,0.65215l0.11562,0.00508l6.72237,-4.1285l0.54957,-0.5623l0.13818,-1.00391l-2.22101,-2.84136l0.41052,0.29675l4.36542,0.49927l2.85394,-0.69284l1.8891,-0.64831l1.55226,0.59301l1.38194,0.67967"
       id="GA_Brantley" />
    <path
       d="m137.15129,170.45214l7.22077,1.75403l6.28259,8.36625l7.06624,9.31648l-11.30288,1.0243l0.82509,10.15026l9.6771,-0.76622l1.15042,0.18079l-1.57968,10.34156l-8.19816,0.14336l-0.6221,-1.41373l-0.58456,-4.16684l-0.58056,-5.41193l-3.99452,-6.31107l-2.41144,-1.96647l-1.30858,-1.44386l-3.29896,-6.24073l0.88476,-8.52952l0.77447,-5.02666"
       id="GA_Ware" />
    <path
       d="m165.32106,187.36998l2.28265,10.34455l-4.46871,2.34868l-0.56773,5.01762l0.13486,0.96881l0.58003,0.97028l1.15109,1.65051l0.4611,1.45372l-0.1078,3.11564l-0.35301,3.17727l-0.35116,3.21717l-4.59824,0.68146l-0.26137,-0.06577l-0.79882,-0.68665l-0.70078,-1.10587l-0.34816,-1.05781l-0.88407,-6.58l1.57968,-10.34156l-1.15042,-0.18079l-9.6771,0.76622l-0.82509,-10.15026l11.30288,-1.0243l2.02825,-0.18971l0.48039,-3.11014l5.09153,0.78093"
       id="GA_Charlton" />
    <path
       d="m184.82535,186.78889l1.74195,14.1688l-0.61722,0.04168l-3.40688,0.25954l-2.48339,0.00322l-4.66319,-0.72594l-6.14855,-1.6056l-1.64436,-1.21606l-2.28265,-10.34455l0.27426,-1.87757l0.26296,-0.38302l0.71519,-0.29441l2.56412,-0.68747l2.31943,-3.11269l0.12388,0.55929l0.11867,0.18258l3.16157,1.12338l1.87179,0.15818l8.09243,3.75064"
       id="GA_Camden" />
    <path
       d="m190.44968,173.12078l-5.62433,13.66811l-8.09243,-3.75064l-1.87179,-0.15818l-3.16157,-1.12338l-0.11867,-0.18258l-0.12388,-0.55929l0.59754,-7.59369l3.61209,-6.17271l0.02241,0.14941l2.04316,2.10958l2.64841,1.76329l5.49204,1.30531l3.91672,0.66059l0.66029,-0.11582"
       id="GA_Glynn" />
    <path
       d="m179.65013,155.25308l1.26988,0.42859l1.87709,1.43986l1.00101,0.28646l2.90359,-1.08162l2.14228,0.18091l1.12536,0.42224l0.70031,0.37462l1.25356,1.13014l0.14832,0.33231l-0.00226,1.28859l-1.61959,13.0656l-0.66029,0.11582l-3.91672,-0.66059l-5.49204,-1.30531l-2.64841,-1.76329l-2.04316,-2.10958l-0.02241,-0.14941l-1.9724,-3.80421l5.95589,-8.19113"
       id="GA_McIntosh" />
    <path
       d="m34.91123,87.29323l3.64477,9.16632l-11.22846,5.26648l-3.17742,-13.79377l10.76111,-0.63903"
       id="GA_Heard" />
    <path
       d="m19.05924,66.0219l4.49846,-0.22248l2.16973,-0.44415l6.25302,-0.36265l0.77081,4.29446l-0.27756,2.61226l-2.86725,2.89317l-6.02431,2.65687l-1.86419,0.08108l-2.65871,-11.50856"
       id="GA_Haralson" />
    <path
       d="m31.45869,56.01403l4.79735,0.30829l-1.68767,6.28612l-2.73936,0.14403l0.15145,2.24015l-6.25302,0.36265l-2.16973,0.44415l-4.49846,0.22248l-0.67352,-2.88206l-1.24757,-5.39053l6.28194,-0.36138l-0.0344,-0.78343l8.07299,-0.59047"
       id="GA_Polk" />
    <path
       d="m28.97071,33.1102l3.06801,8.94555l0.16722,2.12861l-0.26225,6.30525l-0.78389,0.04522l0.29889,5.4792l-8.07299,0.59047l0.0344,0.78343l-6.28194,0.36138l-2.19188,-9.52607l2.86348,-0.16754l2.2117,-4.36992l2.05184,-1.05746l3.14516,-2.13163l0.35208,-0.92936l1.92616,-6.35891l1.47401,-0.09822"
       id="GA_Floyd" />
    <path
       d="m27.4967,33.20842l-1.92616,6.35891l-0.35208,0.92936l-3.14516,2.13163l-2.05184,1.05746l-2.2117,4.36992l-2.86348,0.16754l-2.71799,-10.98266l-0.69797,-2.9845l15.96638,-1.04766"
       id="GA_Chattooga" />
    <path
       d="m31.12917,14.11712l6.30067,-0.45832l-0.90101,2.96137l-2.84421,10.28606l-0.18724,1.54473l1.22082,2.0409l-5.15159,0.9178l-0.33965,-4.55067l-4.49787,0.29129l0.06771,-0.38798l0.70154,-1.88052l0.53276,-2.48884l2.41236,-0.61087l0.97326,-1.80346l1.663,-5.14693l-0.06695,-0.70158l0.11641,-0.01298"
       id="GA_Whitfield" />
    <path
       d="m20.21952,15.00663l10.79325,-0.87653l0.06694,0.70158l-1.663,5.14693l-0.97326,1.80346l-2.41236,0.61087l-0.53276,2.48884l-5.27881,-9.87515"
       id="GA_Catoosa" />
    <path
       d="m20.21952,15.00663l5.27881,9.87515l-0.70154,1.88052l-0.06771,0.38798l4.49787,-0.29129l0.33965,4.55067l-0.5959,1.70054l-1.47401,0.09822l-15.96638,1.04766l-0.38498,-1.62052l1.51463,-2.26114l1.24951,-4.30354l-0.12871,-1.76853l1.09345,-5.28416l1.61259,-3.66859l3.73272,-0.34297"
       id="GA_Walker" />
    <path
       d="m16.48681,15.3496l-1.61259,3.66859l-1.09345,5.28416l0.12871,1.76853l-1.24951,4.30354l-1.51464,2.26114l-2.58856,-10.9625l-1.2168,-5.76202l5.03762,-0.30017l4.10921,-0.26127"
       id="GA_Dade" />
    <path
       d="m165.01011,141.99875l0.94059,1.25033l1.98782,4.52527l0.08997,0.50713l5.3823,4.54754l5.91354,2.42424l0.3258,-0.00018l-5.95589,8.19113l-13.26859,-10.35614l4.58445,-11.08932"
       id="GA_Long" />
    <path
       d="m149.76981,148.35975l7.34502,3.29432l-1.4897,0.45589l-1.58849,2.37736l1.45485,14.02949l-3.98985,-2.37603l-0.31029,-0.6833l-0.37526,-0.44l-4.41459,-2.43087l-2.59303,-0.79797l-1.81129,-1.04239l-2.95407,-1.80929l-0.53888,-5.94947l3.50349,-0.31682l-0.43131,-4.68862l-0.16489,-1.27421l8.35829,1.65191"
       id="GA_Appling" />
    <path
       d="m141.41152,146.70784l0.16489,1.27421l0.43131,4.68862l-3.50349,0.31682l0.53888,5.94947l-3.99768,2.17387l-8.258,0.84662l-0.62025,-6.73494l7.04607,-5.48262l3.83514,-2.26426l2.4022,-0.79231l1.96092,0.02452"
       id="GA_Jeff Davis" />
    <path
       d="m52.91088,141.94398l0.37515,-0.0523l0.37577,0.3459l0.19448,2.66193l0.12218,3.15469l-0.16319,3.38832l0.31744,5.05648l-9.91262,0.52422l-6.36778,-2.54916l0.04448,-3.48765l4.60148,-8.17816l10.41261,-0.86427"
       id="GA_Stewart" />
    <path
       d="m53.28603,141.89168l1.11488,-0.0814l3.15284,2.47686l0.80057,1.05956l1.76713,0.64589l2.06229,-0.14116l0.11416,7.79144l-5.95694,2.68879l-2.20825,0.16734l-0.31744,-5.05648l0.16319,-3.38832l-0.12218,-3.15469l-0.19448,-2.66193l-0.37577,-0.3459"
       id="GA_Webster" />
    <path
       d="m71.6294,140.62615l6.25151,2.22913l3.16132,6.32519l1.98461,5.42286l-16.3778,1.10201l0.15108,2.00122l-4.50221,-4.06369l-0.11416,-7.79144l-0.06441,-1.50148l9.51007,-3.7238"
       id="GA_Sumter" />
    <path
       d="m105.24155,143.56743l6.02989,9.09363l1.33083,2.33895l-11.90694,1.09553l-5.22622,0.14347l-0.58858,-8.11635l-0.32659,-4.1881l4.64039,-0.40448l2.10801,-0.52287l0.7253,-0.44238l1.63674,-0.09468l0.42927,0.11658l1.14791,0.9807"
       id="GA_Wilcox" />
    <path
       d="m121.17789,140.73021l12.03536,9.00968l-7.04607,5.48262l-6.11903,2.25815l-7.44589,-2.48065l-1.33083,-2.33895l9.90646,-11.93085"
       id="GA_Telfair" />
    <path
       d="m128.47026,131.8629l2.64132,0.27522l0.35892,0.07003l0.28457,0.93919l1.17936,4.71785l0.19111,2.49165l1.00555,3.7292l0.37341,0.72951l0.16404,0.30403l2.37986,2.35605l-3.83514,2.26426l-12.03536,-9.00968l1.42004,-2.99289l5.87232,-5.87442"
       id="GA_Wheeler" />
    <path
       d="m104.17921,135.85382l7.48639,-7.76194l6.98252,12.29563l3.94981,-2.65019l-1.42004,2.99289l-9.90645,11.93085l-6.02989,-9.09363l1.02259,-1.03023l0.13213,-0.37068l0.34145,-2.17145l-3.54284,-2.9935l0.98432,-1.14775"
       id="GA_Dodge" />
    <path
       d="m104.17921,135.85382l-0.98432,1.14775l3.54284,2.9935l-0.34145,2.17145l-0.13213,0.37068l-1.02259,1.03023l-1.14791,-0.9807l-0.42927,-0.11658l-1.63674,0.09468l-0.7253,0.44238l-2.10801,0.52287l-4.64039,0.40448l-0.97055,-7.90869l4.12966,-5.67577l6.46616,5.50372"
       id="GA_Pulaski" />
    <path
       d="m93.58338,136.02587l0.97056,7.90869l0.32658,4.1881l-13.8383,1.05781l-3.16132,-6.32519l6.56503,-6.1517l9.13745,-0.67771"
       id="GA_Dooly" />
    <path
       d="m76.97149,127.20266l6.86,1.2314l0.61444,8.26952l-6.56502,6.1517l-6.2515,-2.22913l-3.38544,-6.41467l7.29939,-7.62535l1.42814,0.61653"
       id="GA_Macon" />
    <path
       d="m63.89078,133.35075l4.35319,0.86073l3.38544,6.41467l-9.51007,3.7238l-0.20908,-3.07162l0.58433,-2.17889l0.71703,-0.99659l-0.51491,-5.42351l1.19407,0.67141zm0,0l0,0"
       id="GA_Schley" />
    <path
       d="m52.6853,127.78382l7.43651,-1.84195l2.5749,6.73747l0.51491,5.42351l-0.71704,0.99659l-0.58433,2.17889l0.20908,3.07162l0.06442,1.50148l-2.06229,0.14116l-1.76713,-0.64589l-0.80057,-1.05956l-3.15284,-2.47686l-1.11488,0.0814l-0.37515,0.0523l-0.22558,-14.16016"
       id="GA_Marion" />
    <path
       d="m52.6853,127.78382l0.22558,14.16016l-10.41261,0.86427l0.09979,-0.12956l0.38955,-1.45258l-0.35612,-0.79391l-0.92582,-0.84426l-2.55628,-0.81083l-0.23363,-0.28537l-0.06582,-0.39747l0.51011,-1.64277l4.12216,-1.95845l4.33495,-1.03329l2.68848,-4.75802l2.17966,-0.91792"
       id="GA_Chattahoochee" />
    <path
       d="m35.00498,125.65399l6.85913,-0.48084l0.08075,1.12933l8.31807,-0.64851l0.24271,3.04777l-2.68847,4.75802l-4.33495,1.03329l-4.12216,1.95845l-0.80164,-6.47863l-3.55344,-4.31888"
       id="GA_Muscogee"
       fill="#ff00ff" />
    <path
       d="m65.59804,116.80301l3.47757,2.4187l8.38805,6.8297l-1.9203,0.53472l-7.29939,7.62535l-4.35319,-0.86073l-1.19407,-0.67141l-2.57489,-6.73747l5.47623,-9.13886"
       id="GA_Taylor" />
    <path
       d="m56.52583,111.21026l0.35272,-0.11846l0.83292,0.23927l2.5631,1.81025l0.58655,0.82211l0.44259,0.96785l0.08249,0.34751l0.34548,0.2939l1.90812,0.81496l1.95825,0.41536l-5.47623,9.13886l-7.43651,1.84195l-2.17966,0.91792l-0.24271,-3.04777l-1.1325,-12.13661l7.3954,-2.3071"
       id="GA_Talbot" />
    <path
       d="m42.75631,112.68014l6.37413,0.83722l1.1325,12.13661l-8.31807,0.64851l-0.08076,-1.12933l-6.85913,0.48084l-2.54239,-6.32336l-2.24608,-5.65153l12.5398,-0.99896"
       id="GA_Harris" />
    <path
       d="m38.556,96.45955l3.07584,1.34406l1.12447,14.87653l-12.5398,0.99896l-2.65358,-10.96536l-0.23539,-0.98771l11.22846,-5.26648"
       id="GA_Troup" />
    <path
       d="m32.75126,69.28708l5.35343,1.08201l4.28574,9.40803l-1.40373,3.03343l-6.07548,4.48268l-10.76111,0.63903l-0.59072,-2.54178l-1.84144,-7.86002l1.86419,-0.08108l6.02431,-2.65687l2.86725,-2.89317l0.27756,-2.61226"
       id="GA_Carroll" />
    <path
       d="m36.25604,56.32232l7.09707,-0.3763l0.39899,6.16775l0.62853,-0.05205l0.42237,6.62489l-6.69831,1.68248l-5.35343,-1.08201l-0.77081,-4.29446l-0.15145,-2.24015l2.73936,-0.14403l1.68767,-6.28612"
       id="GA_Paulding" />
    <path
       d="m44.58213,13.0967l0.57476,6.20441l1.41754,1.18802l0.09121,0.1488l-0.02095,0.14748l-0.87806,1.36599l-1.05653,1.06134l-0.54958,2.12974l0.61378,6.7998l-10.0561,-1.65042l-1.22082,-2.0409l0.18724,-1.54473l2.84421,-10.28606l0.90101,-2.96137l1.30419,-0.10565l5.8481,-0.45645"
       id="GA_Murray" />
    <path
       d="m34.7182,30.49186l10.05611,1.65042l0.12517,1.60187l0.52033,6.37218l-13.38109,1.93942l-3.06801,-8.94555l0.5959,-1.70054l5.15159,-0.9178"
       id="GA_Gordon" />
    <path
       d="m45.41981,40.11633l0.95933,15.66928l-10.1231,0.53671l-4.79735,-0.30829l-0.29889,-5.4792l0.78389,-0.04522l0.26225,-6.30525l-0.16722,-2.12861l13.38109,-1.93942"
       id="GA_Bartow" />
    <path
       d="m46.37914,55.78561l9.22349,-0.49293l1.3963,3.56899l-1.62172,5.60848l-0.5171,1.80173l-0.2571,0.66204l-2.53896,2.91842l-1.38323,1.32935l-5.87783,-2.49508l-0.42237,-6.62489l-0.62853,0.05205l-0.39899,-6.16775l3.02604,-0.16041"
       id="GA_Cobb" />
    <path
       d="m38.10469,70.36909l6.69831,-1.68248l5.87783,2.49508l-2.58297,3.75633l-3.7468,2.14867l-1.55632,1.64393l-0.33085,0.44521l-0.07345,0.60129l-4.28574,-9.40803"
       id="GA_Douglas" />
    <path
       d="m40.9867,82.81055l9.34041,-0.27061l0.34486,4.84411l2.38515,2.48297l1.65071,2.2263l0.82957,1.55315l-0.0461,1.71021l-13.85947,2.44693l-3.07584,-1.34406l-3.64477,-9.16632l6.07548,-4.48268"
       id="GA_Coweta" />
    <path
       d="m55.82362,97.10521l-0.39228,10.00995l1.09449,4.0951l-7.3954,2.3071l-6.37413,-0.83722l-1.12447,-14.87653l13.85947,-2.44693l0.33232,1.74853"
       id="GA_Meriwether" />
    <path
       d="m55.82362,97.10521l1.67306,-1.33473l2.23966,-0.14063l0.84811,0.80104l4.85477,-0.34077l-0.10763,9.29846l-9.90025,1.72658l0.39228,-10.00995"
       id="GA_Pike" />
    <path
       d="m65.33159,105.38858l5.91985,2.27973l0.26846,3.86337l-2.44429,7.69003l-3.47756,-2.4187l-1.95825,-0.41536l-1.90812,-0.81496l-0.34548,-0.2939l-0.08249,-0.34751l-0.44259,-0.96785l-0.58655,-0.82211l-2.5631,-1.81025l-0.83292,-0.23927l-0.35272,0.11846l-1.09449,-4.0951l9.90025,-1.72658"
       id="GA_Upson" />
    <path
       d="m71.5199,111.53168l9.0363,-0.68213l8.0628,6.65253l-0.00065,0.01444l-11.1547,8.53489l-8.38805,-6.8297l2.4443,-7.69003"
       id="GA_Crawford" />
    <path
       d="m77.46365,126.05141l11.1547,-8.53489l-0.09403,7.50359l-0.08049,0.51412l-2.62408,3.70384l-0.73534,0.42383l-0.39401,0.0696l-0.8589,-1.29744l-6.86,-1.2314l-1.42944,-0.61589l1.9216,-0.53536"
       id="GA_Peach" />
    <path
       d="m88.61835,117.51652l0.00065,-0.01444l4.14658,0.94941l4.75413,9.5408l0.19334,2.35781l-4.12966,5.67577l-9.13745,0.67771l-0.61444,-8.26952l0.8589,1.29744l0.39401,-0.0696l0.73534,-0.42383l2.62408,-3.70384l0.08049,-0.51412l0.09403,-7.50359"
       id="GA_Houston" />
    <path
       d="m111.6656,128.09188l-7.48639,7.76194l-6.46617,-5.50372l-0.19334,-2.35781l10.03831,-7.09972l4.10759,7.19931"
       id="GA_Bleckley" />
    <path
       d="m107.55801,120.89257l9.97189,-6.74063l3.64002,-0.70541l3.11697,1.06712l4.90541,3.04245l0.16261,4.13022l1.10698,0.42868l-1.99163,9.7479l-5.87232,5.87442l-3.94981,2.65019l-6.98253,-12.29563l-4.10759,-7.19931"
       id="GA_Laurens" />
    <path
       d="m101.02997,105.41688l7.22602,-4.13897l0.60656,-0.45844l0.58387,0.05819l2.51815,2.58655l1.94457,3.53151l1.72218,0.68012l0.63258,0.43319l0.96885,1.67872l0.46875,1.93913l-0.1716,2.42506l-9.97189,6.74063l-8.34112,-14.00232l1.81309,-1.47337"
       id="GA_Wilkinson" />
    <path
       d="m95.30861,109.7486l3.90827,-2.85835l8.34113,14.00232l-10.0383,7.09972l-4.75413,-9.5408l0.43626,-3.50666l2.64963,-3.13078l0.45683,-1.17089l-0.99968,-0.89456"
       id="GA_Twiggs" />
    <path
       d="m87.21064,105.38231l0.7141,1.62772l1.57555,1.21668l2.33599,-0.1907l1.34138,0.36657l2.13096,1.34602l0.99968,0.89456l-0.45683,1.17089l-2.64963,3.13078l-0.43626,3.50666l-4.14658,-0.94941l-8.0628,-6.65253l6.65444,-5.46724"
       id="GA_Bibb"
       fill="#ff00ff" />
    <path
       d="m103.17353,92.94984l0.80195,-0.04443l6.18175,1.09665l0.11475,0.18965l0.01325,0.2757l-0.06347,0.37369l-0.21966,0.13877l-0.16165,0.38386l-0.22753,1.72033l0.10226,0.39182l0.76277,1.26063l1.00411,-0.77402l0.74227,-0.82898l-0.25976,6.3307l-2.51815,-2.58655l-0.58387,-0.05819l-0.60656,0.45844l-7.22602,4.13897l-3.85275,-11.85057l5.99631,-0.61647"
       id="GA_Baldwin" />
    <path
       d="m97.17722,93.56631l3.85275,11.85057l-1.81309,1.47337l-3.90827,2.85835l-2.13096,-1.34602l-1.34138,-0.36657l-2.33599,0.1907l-1.57555,-1.21668l-0.7141,-1.62772l-4.80329,-8.00812l10.31851,-2.76161l4.45137,-1.04627"
       id="GA_Jones" />
    <path
       d="m73.40223,94.78892l8.58221,0.34409l0.4229,2.24118l4.8033,8.00812l-6.65444,5.46724l-9.0363,0.68213l-0.26846,-3.86337l2.69367,-0.17499l0.33209,-0.80353l-0.87497,-11.90087"
       id="GA_Monroe" />
    <path
       d="m73.40223,94.78892l0.87498,11.90087l-0.33209,0.80353l-2.69367,0.17499l-5.91985,-2.27973l0.10763,-9.29846l4.76633,-1.04693l3.19668,-0.25427"
       id="GA_Lamar" />
    <path
       d="m59.43201,88.8726l1.29319,-0.10251l9.93917,1.75748l-0.45882,4.51562l-4.76633,1.04693l-4.85477,0.34077l-0.84811,-0.80104l-2.23966,0.14063l-1.67306,1.33473l-0.33232,-1.74853l0.0461,-1.71021l3.8946,-4.77387"
       id="GA_Spalding" />
    <path
       d="m50.32711,82.53994l5.65457,-2.7274l3.45033,9.06006l-3.8946,4.77387l-0.82957,-1.55315l-1.65071,-2.2263l-2.38515,-2.48297l-0.34486,-4.84411"
       id="GA_Fayette" />
    <path
       d="m62.44978,74.79687l0.78437,0.68601l0.27634,2.28181l-0.02453,1.54826l-0.7402,5.401l-0.34372,0.40844l-1.87563,0.75389l0.19879,2.89381l-1.29319,0.10251l-3.45033,-9.06006l3.81481,-4.85338l2.65329,-0.16229"
       id="GA_Clayton" />
    <path
       d="m76.99033,82.81243l2.6624,3.67161l2.33171,8.64897l-8.58221,-0.34409l-3.19668,0.25427l0.45882,-4.51562l6.32596,-7.71514"
       id="GA_Butts" />
    <path
       d="m62.44978,74.79687l3.74287,-0.24478l5.86326,5.13699l4.93441,3.12335l-6.32595,7.71514l-9.93918,-1.75748l-0.19879,-2.89381l1.87563,-0.75389l0.34372,-0.40844l0.74021,-5.401l0.02452,-1.54826l-0.27633,-2.28181l-0.78437,-0.68601"
       id="GA_Henry" />
    <path
       d="m61.46939,60.26693l10.49583,8.78647l-1.16614,1.33162l-2.42404,4.6719l-2.18238,-0.50483l-3.74288,0.24478l-2.65329,0.16229l-0.2394,-3.45306l-0.18702,-2.83174l-0.024,-0.44269l-0.60156,-7.90334l2.72488,-0.0614"
       id="GA_DeKalb"
       fill="#0000ff" />
    <path
       d="m61.30303,49.54105l6.69459,5.82505l-6.52823,4.90083l-2.72488,0.0614l0.60156,7.90334l0.024,0.44269l0.18702,2.83174l0.2394,3.45306l-3.81481,4.85338l-5.65457,2.7274l-9.34041,0.27061l1.40374,-3.03343l0.07345,-0.60129l0.33085,-0.44521l1.55632,-1.64393l3.7468,-2.14867l2.58297,-3.75633l1.38323,-1.32935l2.53896,-2.91842l0.2571,-0.66204l0.51709,-1.80173l1.62172,-5.60848l-1.3963,-3.56899l5.70041,-5.75163"
       id="GA_Fulton"
       fill="#0000ff" />
    <path
       d="m60.64261,40.42244l0.11945,2.14463l0.54097,6.97398l-5.7004,5.75163l-9.22349,0.49293l-0.95933,-15.66928l15.2228,0.30611"
       id="GA_Cherokee" />
    <path
       d="m44.89948,33.74415l3.57012,-0.35009l7.19873,-0.46597l0.93043,-0.74468l0.05361,0.67566l1.28944,3.6946l2.40383,-0.16961l0.29697,4.03838l-15.2228,-0.30611l-0.52033,-6.37218"
       id="GA_Pickens" />
    <path
       d="m62.05269,29.16123l0.37531,0.68614l8.6611,7.9494l1.18253,3.90349l-11.50957,0.86681l-0.11945,-2.14463l-0.29697,-4.03838l-2.40383,0.16961l-1.28944,-3.6946l-0.0536,-0.67566l5.45392,-3.02218"
       id="GA_Dawson" />
    <path
       d="m60.76206,42.56707l11.50957,-0.86681l-3.4101,8.08565l-0.86391,5.58019l-6.69459,-5.82505l-0.54097,-6.97398"
       id="GA_Forsyth" />
    <path
       d="m78.40558,50.89619l1.51277,9.16325l-6.47454,7.3068l-1.47858,1.68716l-10.49584,-8.78647l6.52823,-4.90083l0.86391,-5.58019l9.54406,1.11028"
       id="GA_Gwinnett" />
    <path
       d="m76.19119,69.10132l-4.13527,10.58776l-5.86326,-5.13699l2.18238,0.50483l2.42404,-4.6719l1.16614,-1.33162l1.47858,-1.68716l2.74739,1.73508"
       id="GA_Rockdale" />
    <path
       d="m92.10365,82.31376l0.62221,12.29882l-10.31852,2.76161l-0.4229,-2.24118l-2.33171,-8.64897l6.35479,-7.96003l6.09613,3.78975"
       id="GA_Jasper" />
    <path
       d="m76.19119,69.10132l9.58487,6.11842l0.23146,3.30427l-6.35479,7.96003l-2.6624,-3.67161l-4.93441,-3.12335l4.13527,-10.58776"
       id="GA_Newton" />
    <path
       d="m79.91835,60.05944l5.92448,0.60753l5.77949,3.66363l-5.84626,10.88914l-9.58487,-6.11842l-2.74738,-1.73508l6.47454,-7.3068"
       id="GA_Walton" />
    <path
       d="m78.40558,50.89619l1.42022,1.95193l0.63241,0.4368l3.56695,0.87693l0.93,-0.07504l3.15709,0.15305l0.43281,0.28326l1.25518,2.99084l-3.95741,3.15301l-5.92448,-0.60753l-1.51277,-9.16325"
       id="GA_Barrow" />
    <path
       d="m93.99454,46.241l2.28034,7.18064l-6.47464,4.09232l-1.25518,-2.99084l-0.43281,-0.28326l-3.15709,-0.15305l-0.93,0.07504l-3.56695,-0.87693l-0.63241,-0.4368l-1.42022,-1.95193l6.88503,-8.49422l1.1465,1.01322l0.76182,0.54021l0.44809,0.18258l1.67262,-0.25239l1.43641,-0.39668l2.30292,1.88207l0.93557,0.87002"
       id="GA_Jackson" />
    <path
       d="m96.27488,53.42164l4.07877,1.58716l-0.31137,0.00082l-0.30813,2.15481l0.02664,0.13511l0.16289,0.41257l1.50895,1.66261l-1.09792,2.74639l-10.53448,-4.60715l6.47464,-4.09232"
       id="GA_Clarke"
       fill="#ff00ff" />
    <path
       d="m85.84283,60.66697l3.95741,-3.15301l10.53448,4.60715l0.16249,4.05059l-4.55412,3.38745l-4.32076,-5.22855l-5.77949,-3.66363"
       id="GA_Oconee" />
    <path
       d="m95.94309,69.55915l5.75051,9.60264l-9.58995,3.15197l-6.09613,-3.78975l-0.23146,-3.30427l5.84626,-10.88914l4.32076,5.22855"
       id="GA_Morgan" />
    <path
       d="m92.10365,82.31376l9.58995,-3.15197l5.00425,5.5735l0.54276,0.33511l0.27417,0.26907l0.06576,0.15129l-0.39239,1.51763l-1.6042,1.1676l-1.08286,0.50632l-0.83715,0.84653l-0.54482,2.76342l-0.00632,0.47392l0.06072,0.18366l-5.9963,0.61647l-4.45137,1.04627l-0.6222,-12.29882"
       id="GA_Putnam" />
    <path
       d="m118.36286,79.50244l1.21132,0.69026l1.82494,5.26745l1.52146,2.53193l0.3574,0.68175l-1.14537,0.11625l-2.75042,2.21052l-0.42823,0.76671l-0.36922,1.31954l-0.29752,0.758l-0.42436,0.5135l-3.9369,2.60369l-1.70164,0.17147l-0.74227,0.82898l-1.00411,0.77402l-0.76277,-1.26063l-0.10226,-0.39182l0.22753,-1.72033l0.16165,-0.38386l0.21966,-0.13877l0.06347,-0.37369l-0.01325,-0.2757l-0.11475,-0.18965l-6.18175,-1.09665l-0.80195,0.04443l-0.06072,-0.18366l0.00632,-0.47392l0.54482,-2.76342l0.83715,-0.84653l1.08286,-0.50632l1.6042,-1.1676l0.39239,-1.51763l-0.06576,-0.15129l-0.27417,-0.26907l-0.54276,-0.33511l5.34639,-5.85046l6.31861,0.61761"
       id="GA_Hancock" />
    <path
       d="m113.36626,66.33107l2.62738,4.38682l0.52693,0.61318l0.08311,0.00365l4.74433,-0.29857l2.94549,0.52022l-1.33868,1.88153l-3.73662,2.98893l-1.3552,1.92787l-0.05915,0.19289l0.55901,0.95485l-6.31861,-0.61761l-0.305,-10.53646l1.62701,-2.0173"
       id="GA_Taliaferro" />
    <path
       d="m111.73925,68.34837l0.305,10.53646l-5.34639,5.85046l-5.00425,-5.5735l-5.75052,-9.60264l4.55412,-3.38745l11.24204,2.17667"
       id="GA_Greene" />
    <path
       d="m110.96038,51.94852l7.85707,2.67969l-2.48551,1.70087l-0.82179,0.90873l-2.21597,3.64212l-1.59305,3.14095l-0.02445,0.22697l1.68957,2.08322l-1.62701,2.0173l-11.24204,-2.17667l-0.16249,-4.05059l1.09792,-2.74639l-1.50895,-1.66261l-0.16289,-0.41257l-0.02664,-0.13511l0.30813,-2.15481l0.31137,-0.00082l4.56479,-2.64129l0.27963,-0.02031l0.54213,0.34959l2.05803,0.69847l0.51758,0.08425l2.64457,-1.53099"
       id="GA_Oglethorpe" />
    <path
       d="m118.81746,54.62821l5.04535,-1.13603l7.96885,15.47376l-6.40391,2.06826l-1.13425,0.52217l-2.94549,-0.52022l-4.74433,0.29857l-0.08311,-0.00365l-0.52693,-0.61318l-2.62738,-4.38682l-1.68958,-2.08322l0.02445,-0.22697l1.59306,-3.14095l2.21597,-3.64212l0.82179,-0.90873l2.48551,-1.70087"
       id="GA_Wilkes" />
    <path
       d="m125.42774,71.0342l2.14041,4.76001l3.23169,6.70114l1.68248,0.59511l4.55257,0.77175l-1.68414,1.91705l-2.75787,-1.08394l-2.42334,-0.87015l-1.16025,0.3726l-6.08871,3.79431l-1.52147,-2.53193l-1.82494,-5.26745l-1.21132,-0.69026l-0.55901,-0.95485l0.05915,-0.19289l1.3552,-1.92787l3.73662,-2.98893l1.33868,-1.88153l1.13425,-0.52217"
       id="GA_Warren" />
    <path
       d="m133.87252,68.24104l-0.364,0.45823l-0.05962,0.61639l0.47525,3.68783l2.40112,3.68548l3.29865,4.35113l0.67732,0.48582l-2.10226,2.20639l-1.16409,0.1299l-4.55257,-0.77175l-1.68248,-0.59511l-3.23169,-6.70114l-2.14041,-4.76001l6.40392,-2.06826l2.04086,-0.7249"
       id="GA_McDuffie" />
    <path
       d="m122.92058,87.99208l6.08872,-3.79431l1.16025,-0.3726l2.42334,0.87015l2.75787,1.08394l-1.39327,1.3108l-4.04953,4.09738l0.11087,0.44288l0.22415,1.98632l-3.11505,-0.03898l-3.84994,-4.90383l-0.3574,-0.68175"
       id="GA_Glascock" />
    <path
       d="m137.03489,83.86221l1.16409,-0.1299l3.52464,1.75831l0.21472,0.05649l0.31375,0.2744l1.00705,1.22068l-0.96576,3.77662l-0.35003,2.03713l-0.16447,2.26247l0.24208,1.1654l0.37913,1.34152l0.69033,3.24116l-0.60846,2.81131l-0.6132,2.09437l-4.23605,3.89371l-3.66039,-2.4593l-0.63961,-5.13938l-1.58367,-3.67134l-0.11623,0.00939l-1.38426,-0.79198l-1.5259,-1.27603l-0.59862,-0.87695l-0.99611,-1.88263l3.11505,0.03898l-0.22415,-1.98632l-0.11087,-0.44288l4.04953,-4.09738l1.39327,-1.3108l1.68414,-1.91705"
       id="GA_Jefferson" />
    <path
       d="m127.12792,93.57766l0.99611,1.88263l0.59862,0.87695l1.52591,1.27603l1.38426,0.79198l0.11623,-0.00939l1.58367,3.67134l0.63961,5.13938l-3.33041,1.48642l-2.16426,0.89687l-4.26206,-0.13276l-1.11727,-0.6065l-5.39683,2.87627l-0.46875,-1.93913l-0.96885,-1.67872l-0.63258,-0.43319l-1.72218,-0.68012l-1.94457,-3.53151l0.25976,-6.3307l1.70164,-0.17147l3.9369,-2.60369l0.42436,-0.5135l0.29752,-0.758l0.36922,-1.31954l0.42823,-0.76671l2.75042,-2.21052l1.14537,-0.11625l3.84994,4.90383"
       id="GA_Washington" />
    <path
       d="m137.63272,109.66588l-7.17083,12.44912l-1.10698,-0.42868l-0.16261,-4.13022l-4.90541,-3.04245l-3.11697,-1.06712l-3.64002,0.70541l0.1716,-2.42506l5.39683,-2.87627l1.11727,0.6065l4.26206,0.13276l2.16426,-0.89687l3.33041,-1.48642l3.66039,2.4593"
       id="GA_Johnson" />
    <path
       d="m130.46188,122.115l5.87033,0.10923l1.01324,0.33768l3.36952,1.58137l0.36147,0.34165l-0.18379,2.29059l-0.4054,1.81389l-9.37567,3.54871l-2.64132,-0.27522l1.99162,-9.7479"
       id="GA_Treutlen" />
    <path
       d="m140.48725,128.58941l-1.03666,18.09391l-2.4022,0.79231l-2.37986,-2.35605l-0.16404,-0.30403l-0.37341,-0.72951l-1.00555,-3.7292l-0.19111,-2.49165l-1.17936,-4.71785l-0.28457,-0.93919l-0.35892,-0.07003l9.37568,-3.54871"
       id="GA_Montgomery" />
    <path
       d="m140.48725,128.58941l7.05727,0.94322l2.31906,8.11266l-0.09377,10.71446l-8.35829,-1.65191l-1.96092,-0.02452l1.03666,-18.09391"
       id="GA_Toombs" />
    <path
       d="m167.30778,140.20638l1.47875,-2.10343l3.28575,1.67544l6.8203,2.63055l2.82195,1.10848l0.30107,0.56344l1.12569,3.05394l0.06161,0.3285l-0.01655,0.12959l0.4026,0.39414l2.85319,2.29355l4.37048,2.36376l0.23875,0.08651l-0.15612,0.34066l0.75983,0.75009l1.04511,0.35356l0.25203,-0.13374l0.07125,-0.2213l0.10418,-0.0642l0.39368,-0.06237l0.33751,0.14513l0.19024,1.93415l0.09965,1.44148l-0.78258,2.57199l-0.42302,0.73077l-0.22984,0.04059l-0.64403,-0.50248l0.00226,-1.28859l-0.14832,-0.33231l-1.25356,-1.13014l-0.70031,-0.37462l-1.12536,-0.42224l-2.14228,-0.18091l-2.90359,1.08162l-1.00101,-0.28646l-1.87708,-1.43986l-1.26988,-0.42859l-0.3258,0.00018l-5.91354,-2.42424l-5.3823,-4.54754l-0.08997,-0.50713l-1.98782,-4.52527l-0.94059,-1.25033l2.29768,-1.79237"
       id="GA_Liberty" />
    <path
       d="m155.85452,130.55256l2.25553,0.24016l7.89034,4.64315l2.78614,2.66708l-1.47875,2.10343l-5.01381,0.41705l-3.72096,-1.07915l-2.71849,-8.99172"
       id="GA_Evans" />
    <path
       d="m147.54452,129.53263l8.31001,1.01993l2.71849,8.99172l3.72096,1.07915l5.01381,-0.41705l-2.29768,1.79237l-4.58446,11.08932l-3.31083,-1.434l-7.34502,-3.29432l0.09377,-10.71446l-2.31906,-8.11266"
       id="GA_Tattnall" />
    <path
       d="m154.40798,118.47817l2.43761,0.95767l2.51665,4.35301l-0.87425,5.89829l-0.37793,1.10558l-2.25553,-0.24016l-8.31001,-1.01993l-0.69982,-1.95289l1.98878,-5.47653l1.04606,-2.30703l2.4926,-2.10962l2.03585,0.79161"
       id="GA_Candler" />
    <path
       d="m148.63784,106.1887l6.56541,9.01578l-0.79527,3.27369l-2.03585,-0.79161l-2.49259,2.10962l-1.04606,2.30703l-1.98878,5.47653l0.69981,1.95289l-7.05726,-0.94322l0.4054,-1.81389l0.18379,-2.29059l-0.36147,-0.34165l-3.36952,-1.58137l-1.01324,-0.33768l-5.87033,-0.10923l7.17083,-12.44912l4.23605,-3.89371l6.76908,0.41653"
       id="GA_Emanuel" />
    <path
       d="m191.3239,129.36537l0.16238,0.91936l0.28686,1.87684l0.41716,2.04184l0.17289,0.18496l2.16301,0.94563l7.18406,1.68361l1.34473,0.20745l0.36929,0.08137l0.17019,0.57579l-0.01792,0.40828l-0.17592,0.70901l-0.45043,0.94314l-6.99037,10.23439l-0.31057,0.39541l-1.92013,2.01528l-0.2803,0.11803l-0.88399,-0.23066l-1.13063,-4.01343l-1.59844,-4.8195l-4.38034,-3.21126l-3.11413,-3.02898l-0.79273,-0.99045l9.77532,-7.04611"
       id="GA_Chatham" />
    <path
       d="m166.00039,135.43587l13.08538,-5.59404l2.4628,6.56965l0.79273,0.99045l3.11413,3.02898l4.38034,3.21126l1.59844,4.8195l1.13063,4.01343l-1.51348,0.25575l-0.23875,-0.08651l-4.37048,-2.36376l-2.85319,-2.29355l-0.4026,-0.39414l0.01655,-0.12959l-0.06161,-0.3285l-1.12569,-3.05394l-0.30107,-0.56344l-2.82194,-1.10848l-6.8203,-2.63055l-3.28575,-1.67544l-2.78614,-2.66708"
       id="GA_Bryan" />
    <path
       d="m161.24074,112.57714l12.2238,6.20167l5.62124,11.06302l-13.08539,5.59404l-7.89034,-4.64315l0.37793,-1.10558l0.87426,-5.89829l-2.51665,-4.35301l-2.43761,-0.95767l0.79526,-3.27369l6.0375,-2.62734"
       id="GA_Bulloch" />
    <path
       d="m148.63784,106.1887l-0.15256,-0.31801l0.63811,-3.07427l1.48345,-1.71588l8.52637,-2.59049l1.29949,0.24888l1.64901,0.61536l0.39559,0.30696l0.33611,0.50707l-1.57267,12.40882l-6.03749,2.62734l-6.56541,-9.01578"
       id="GA_Jenkins" />
    <path
       d="m179.08287,113.16475l4.00029,1.80816l0.73567,0.31101l3.34271,3.0173l3.76517,8.56709l0.39719,2.49706l-9.77532,7.04611l-2.4628,-6.56965l-5.62124,-11.06302l5.61834,-5.61406"
       id="GA_Effingham" />
    <path
       d="m162.81342,100.16832l8.05548,-7.28449l6.83269,13.40036l1.38129,6.88056l-5.61834,5.61406l-12.22379,-6.20167l1.57267,-12.40882"
       id="GA_Screven" />
    <path
       d="m141.72361,85.49062l3.60291,-1.75681l0.25935,0.02949l1.2394,0.79287l0.2505,0.56121l2.25915,0.98242l3.74807,0.13191l3.2803,-1.91214l1.51917,0.43953l3.50361,2.89766l6.36604,3.331l3.11679,1.89607l-8.05548,7.28449l-0.33611,-0.50707l-0.39559,-0.30696l-1.64901,-0.61536l-1.29949,-0.24888l-8.52638,2.59049l-1.48345,1.71588l-0.6381,3.07427l0.15256,0.31801l-6.76908,-0.41653l0.6132,-2.09437l0.60846,-2.81131l-0.69033,-3.24116l-0.37913,-1.34152l-0.24208,-1.1654l0.16447,-2.26247l0.35003,-2.03713l0.96575,-3.77662l-1.00705,-1.22068l-0.31375,-0.2744l-0.21472,-0.05649"
       id="GA_Burke" />
    <path
       d="m149.63005,71.62222l0.60642,0.61666l0.31514,0.32514l1.74876,1.80707l2.45102,3.12658l0.75914,3.56998l2.37193,3.69145l-1.51917,-0.43953l-3.28031,1.91214l-3.74807,-0.13191l-2.25915,-0.98242l-0.25049,-0.56121l-1.23941,-0.79287l-0.25934,-0.02949l-3.60291,1.75681l-3.52464,-1.75831l2.10226,-2.20639l9.32882,-9.9037"
       id="GA_Richmond"
       fill="#ff00ff" />
    <path
       d="m141.64767,65.77684l4.28761,4.08683l3.69478,1.75855l-9.32882,9.9037l-0.67732,-0.48582l-3.29865,-4.35113l-2.40112,-3.68548l-0.47525,-3.68783l0.05962,-0.61639l0.364,-0.45823l7.77515,-2.4642"
       id="GA_Columbia" />
    <path
       d="m123.86281,53.49218l3.2519,1.04408l5.61203,3.68523l0.23922,0.07565l0.55114,-0.18576l0.1764,0.02223l3.25035,1.82228l0.97646,0.76323l2.30896,2.0742l1.41839,2.98352l-7.77515,2.4642l-2.04086,0.7249l-7.96885,-15.47376"
       id="GA_Lincoln" />
    <path
       d="m117.94615,39.59266l1.27051,3.79513l6.40771,8.65048l1.49035,2.49799l-3.25191,-1.04408l-5.04535,1.13603l-7.85707,-2.67969l-4.6645,-8.20112l11.65026,-4.15474"
       id="GA_Elbert" />
    <path
       d="m104.73541,41.69158l1.56047,2.05582l4.6645,8.20112l-2.64457,1.53099l-0.51758,-0.08425l-2.05803,-0.69847l-0.54213,-0.34959l-0.27963,0.02031l-4.56479,2.64129l-4.07877,-1.58716l-2.28034,-7.18064l1.69729,-1.39157l9.04358,-3.15785"
       id="GA_Madison" />
    <path
       d="m93.07294,33.91817l2.6189,10.93126l-1.69729,1.39157l-0.93557,-0.87002l-2.30292,-1.88207l-1.43641,0.39668l-1.67263,0.25239l-0.44808,-0.18258l-0.76182,-0.54021l-1.1465,-1.01322l-0.33967,-6.36425l5.68524,-2.84913l2.43675,0.72958"
       id="GA_Banks" />
    <path
       d="m82.67747,32.82482l2.27348,3.2129l0.33967,6.36425l-6.88503,8.49422l-9.54406,-1.11028l3.4101,-8.08565l-1.18253,-3.90349l4.8447,-4.4824l6.74367,-0.48955"
       id="GA_Hall" />
    <path
       d="m74.58149,23.21698l1.35231,10.09739l-4.8447,4.4824l-8.6611,-7.9494l1.00033,-2.25472l2.93773,-0.45749l3.25397,-2.79656l4.96146,-1.12162"
       id="GA_Lumpkin" />
    <path
       d="m45.15689,19.30111l7.27024,-0.52797l2.1534,0.34066l1.61612,1.11709l0.85254,0.69987l2.5265,3.71632l2.11742,3.38706l0.35957,1.12709l-5.45392,3.02218l-0.93043,0.74468l-7.19873,0.46597l-3.57013,0.35009l-0.12517,-1.60187l-0.61378,-6.7998l0.54958,-2.12974l1.05653,-1.06134l0.87806,-1.36599l0.02095,-0.14748l-0.09121,-0.1488l-1.41754,-1.18802"
       id="GA_Gilmer" />
    <path
       d="m55.9263,12.20453l7.28847,-0.5308l-1.58471,1.54856l-0.14871,0.2541l0.0255,0.24366l1.95328,6.38438l0.69838,0.50124l0.72519,-0.19261l-0.39205,4.89141l-1.06333,2.28818l-1.00033,2.25472l-0.37531,-0.68614l-0.35957,-1.12709l-2.11742,-3.38706l-2.5265,-3.71632l-0.85254,-0.69987l-1.61612,-1.11709l-2.1534,-0.34066l-7.27024,0.52797l-0.57476,-6.20441l11.34417,-0.89217"
       id="GA_Fannin" />
    <path
       d="m67.9084,11.29331l2.60901,-0.22577l-0.26535,0.8499l1.15598,1.2091l2.25143,1.4056l1.1056,-0.03473l1.08488,0.68473l1.24154,3.30155l0.11119,1.17773l-2.6212,3.55556l-4.96146,1.12162l-3.25397,2.79656l-2.93773,0.45749l1.06333,-2.28818l0.39205,-4.89141l-0.72519,0.19261l-0.69838,-0.50124l-1.95328,-6.38438l-0.0255,-0.24366l0.14871,-0.2541l1.58471,-1.54856l4.69363,-0.38042"
       id="GA_Union" />
    <path
       d="m77.20268,19.66142l3.71448,-0.66956l1.95444,1.24416l0.24079,0.4522l0.20859,1.18562l1.07381,8.93764l-1.71733,2.01334l-6.74367,0.48955l-1.35231,-10.09739l2.6212,-3.55556"
       id="GA_White" />
    <path
       d="m81.94828,17.84979l11.79582,3.99284l0.69648,1.28667l-3.80439,10.05929l-5.68524,2.84913l-2.27348,-3.2129l1.71733,-2.01334l-1.07381,-8.93764l-0.20859,-1.18562l-0.24079,-0.4522l-1.95444,-1.24416l1.03111,-1.14207"
       id="GA_Habersham" />
    <path
       d="m106.11063,31.22522l2.34844,0.43248l0.43206,-0.19462l0.03316,-0.01301l1.53394,-0.30915l1.37363,-0.12072l0.78848,0.26266l0.37719,0.31339l-0.02,0.12583l1.1822,2.01387l3.78642,5.85671l-11.65026,4.15474l-1.56047,-2.05582l1.37521,-10.46636"
       id="GA_Hart" />
    <path
       d="m103.84801,29.49694l2.26262,1.72828l-1.37521,10.46636l-9.04358,3.15785l-2.6189,-10.93126l0.78296,-0.43623l0.29709,-0.08832l7.23965,-0.98542l2.45537,-2.91126"
       id="GA_Franklin" />
    <path
       d="m94.44058,23.1293l9.40743,6.36764l-2.45537,2.91126l-7.23965,0.98542l-0.29709,0.08832l-0.78296,0.43623l-2.43675,-0.72958l3.80439,-10.05929"
       id="GA_Stephens" />
    <ellipse
       rx="0.956432"
       ry="0.956432"
       stroke="#ffffff"
       id="svg_1"
       cy="69.455832"
       cx="61.630237"
       stroke-opacity="null"
       stroke-width="0"
       fill="#ff00ff" />
    <ellipse
       rx="0.956432"
       ry="0.956432"
       stroke="#ffffff"
       id="svg_2"
       cy="70.076884"
       cx="63.617603"
       stroke-opacity="null"
       stroke-width="0"
       fill="#ff00ff" />
  </g>
  <g
     id="svg_164">
    <path
       d="m101.92323,7.74903l-0.97939,3.67467l-3.5718,2.53284l-2.70327,4.43521l-0.77587,3.49176l-11.79583,-3.99284l3.197,-8.26152l2.4813,-0.28567l14.14786,-1.59445"
       id="svg_3" />
    <path
       d="m70.66621,11.10842l14.62786,-1.47927l-3.197,8.26152l-1.03111,1.14207l-3.71448,0.66956l-0.11119,-1.17773l-1.24154,-3.30155l-1.08488,-0.68473l-1.1056,0.03473l-2.25143,-1.4056l-1.15598,-1.2091l0.26535,-0.8499"
       id="svg_4" />
    <path
       d="m82.01372,176.66386l1.1729,17.07233l-4.49915,0.32018l-10.3342,0.8098l-5.23088,0.41476l0.11815,-1.94957l0.66623,-1.57076l0.23167,-0.3301l5.04996,-6.60191l4.95426,-3.5147l2.22869,-4.0144l5.64238,-0.63563"
       id="svg_5" />
    <path
       d="m64.92139,178.37522l11.44995,-1.07573l-2.22869,4.0144l-4.95426,3.5147l-5.04996,6.60191l-0.23167,0.3301l-0.66622,1.57076l-0.11815,1.94957l-1.37864,0.06981l-4.57297,-8.05955l-0.45614,-8.16483l8.20675,-0.75114"
       id="svg_6" />
    <path
       d="m57.17079,187.29119l4.57297,8.05955l-7.45157,1.03043l-7.64173,0.41393l-0.43916,-8.55141l8.45765,-0.44692l2.49691,-0.39356l0.00492,-0.11202"
       id="svg_7" />
    <path
       d="m49.25905,176.5367l7.45559,2.58966l0.45614,8.16483l-0.00492,0.11202l-2.49691,0.39356l-8.45765,0.44692l0.43916,8.55141l-3.95962,0.15201l-0.38919,-0.9474l-0.27296,-0.5441l-1.79148,-2.15285l-0.29261,-0.09609l-0.34323,-0.01507l-0.33466,-0.21016l-0.36327,-0.96075l-0.4077,-3.33012l0.32755,-1.19467l0.47695,-1.21708l0.92728,-9.91046l0.79628,1.48654l0.9003,-0.05824l0.77673,-0.21205l1.10999,-0.38206l5.44824,-0.66585"
       id="svg_8" />
    <path
       d="m46.65046,196.7951l7.64173,-0.41393l-0.7723,1.67832l0.41091,6.96829l-0.41082,2.34939l-1.34354,2.23968l-1.6088,0.94296l-0.62367,1.17807l-0.0936,0.73073l0.38195,0.94708l-0.05058,-0.00222l-6.472,-13.04064l-1.01889,-3.42572l3.95962,-0.15201"
       id="svg_9" />
    <path
       d="m68.35327,194.86617l1.2474,18.09642l-19.36835,0.4531l-0.38196,-0.94708l0.0936,-0.73073l0.62367,-1.17807l1.6088,-0.94296l1.34354,-2.23968l0.41082,-2.34939l-0.41091,-6.96829l0.77231,-1.67832l7.45156,-1.03043l1.37864,-0.06981l5.23088,-0.41476"
       id="svg_10" />
    <path
       d="m78.68748,194.05637l0.29046,4.59919l0.5331,1.29761l0.50539,0.69187l0.76123,0.80083l0.7535,11.20413l-7.92595,0.20961l-4.00453,0.10298l-1.2474,-18.09642l10.3342,-0.8098"
       id="svg_11" />
    <path
       d="m83.18663,193.73619l10.7749,0.94349l1.22024,17.64273l-10.58499,0.25581l-3.06562,0.07178l-0.7535,-11.20413l-0.76123,-0.80083l-0.50539,-0.69187l-0.5331,-1.29761l-0.29046,-4.59919l4.49915,-0.32018"
       id="svg_12" />
    <path
       d="m104.37139,194.04334l3.17294,9.3592l-1.08687,1.09257l-1.26711,2.39506l-0.03636,0.16856l1.41631,2.28839l0.62547,0.51253l3.51336,2.0981l-10.21932,0.25375l-5.30805,0.11091l-1.22024,-17.64273l6.26064,-2.43293l4.14922,1.79659"
       id="svg_13" />
    <path
       d="m101.68541,180.43403l-1.46324,11.81272l-6.26064,2.43293l-10.7749,-0.94349l-0.82372,-11.99635l13.70035,-0.96614l5.62215,-0.33967"
       id="svg_14" />
    <path
       d="m104.70078,179.11478l-0.06438,1.46686l0.22448,0.74108l0.24022,0.3834l2.09048,1.60849l0.62211,0.25897l2.9494,7.11228l0.80135,2.93833l-7.19306,0.41915l-4.14922,-1.79659l1.46324,-11.81272l3.01538,-1.31925"
       id="svg_15" />
    <path
       d="m120.74865,185.44808l3.00365,-0.3098l1.36286,14.64084l-1.82565,1.09998l-0.39576,-2.52961l-0.96201,-1.91734l-5.44577,0.36191l-1.04009,-3.43752l-0.12054,-1.37723l0.89516,-4.39511l5.04789,-0.45177l0.03683,-0.17937l-0.20639,-0.82355l-0.35018,-0.68143"
       id="svg_16" />
    <path
       d="m111.56445,193.62419l3.88144,-0.26765l1.04009,3.43752l5.44576,-0.36191l0.96201,1.91734l0.39576,2.52961l-3.7064,10.87807l-6.94336,0.17309l-1.93062,0.02749l-3.51336,-2.0981l-0.62547,-0.51253l-1.41631,-2.28839l0.03636,-0.16856l1.26711,-2.39506l1.08687,-1.09257l-3.17294,-9.3592l7.19306,-0.41915"
       id="svg_17" />
    <path
       d="m125.11516,199.77912l5.12122,1.17681l0.42319,0.74979l0.51379,1.65513l1.08588,1.32188l0.55753,0.32854l1.04544,0.34634l1.49877,-0.003l0.8034,-0.07696l1.58043,0.03316l2.61588,0.27771l0.68838,0.31619l0.3869,0.42241l0.13389,0.24841l0.23924,4.61141l-4.24802,0.12487l-17.97797,0.44536l3.7064,-10.87807l1.82565,-1.09998"
       id="svg_18" />
    <path
       d="m123.7523,185.13828l11.88856,-1.08908l3.29896,6.24073l1.30858,1.44386l2.41144,1.96647l3.99452,6.31107l0.58056,5.41193l0.58456,4.16684l0.6221,1.41373l-1.63453,0.0441l-4.99796,0.13901l-0.23924,-4.61141l-0.13389,-0.24841l-0.3869,-0.42241l-0.68838,-0.31619l-2.61588,-0.27771l-1.58043,-0.03316l-0.80339,0.07696l-1.49877,0.003l-1.04545,-0.34634l-0.55752,-0.32854l-1.08588,-1.32188l-0.51379,-1.65513l-0.42319,-0.74979l-5.12123,-1.17681l-1.36286,-14.64084"
       id="svg_19" />
    <path
       d="m136.52561,175.51968l-0.88476,8.52952l-11.88856,1.08908l-3.00364,0.3098l-0.28636,-1.97094l-0.79327,-4.27736l-1.74871,-1.47766l-1.76406,-2.0358l-0.05978,-0.12208l-0.04902,-0.78043l7.20113,-0.52016l5.21667,1.31132l0.58788,0.6267l7.47248,-0.68199"
       id="svg_20" />
    <path
       d="m115.59413,172.41096l0.45332,2.37285l0.04902,0.78043l0.05979,0.12208l1.76406,2.0358l1.74871,1.47766l0.79327,4.27736l0.28636,1.97094l0.35018,0.68143l0.20639,0.82355l-0.03683,0.17937l-5.04789,0.45177l-0.89516,4.39511l0.12054,1.37723l-3.88144,0.26765l-0.80135,-2.93833l-2.9494,-7.11228l-0.62212,-0.25897l-2.09048,-1.60849l-0.24021,-0.3834l-0.22448,-0.74108l0.06438,-1.46686l3.27328,-6.20568l7.62007,-0.49814"
       id="svg_21" />
    <path
       d="m120.54976,162.51441l-4.95562,9.89655l-7.62007,0.49814l-6.89808,-4.90004l1.20366,-7.79515l3.26156,-0.2478l2.0849,3.38562l2.44575,1.01956l3.51963,-0.18942l2.29437,-0.97442l4.6639,-0.69304"
       id="svg_22" />
    <path
       d="m95.28911,169.70985l5.78688,-1.70079l6.89807,4.90004l-3.27328,6.20568l-3.01537,1.31925l-5.62216,0.33967l-0.77415,-11.06385"
       id="svg_23" />
    <path
       d="m82.7501,157.65903l5.55821,1.61226l0.17196,0.12339l0.21195,1.85185l0.56885,6.42137l3.10854,-0.22558l0.338,0.13431l1.1508,0.83239l1.4307,1.30083l0.77415,11.06385l-13.70035,0.96614l-0.34918,-5.07598l-1.60811,-9.54753l2.34448,-9.4573"
       id="svg_24" />
    <path
       d="m69.47419,169.32617l10.93142,-2.20984l1.60811,9.54753l-5.64238,0.63563l-11.44995,1.07573l-1.46322,-8.56015l6.01602,-0.4889"
       id="svg_25" />
    <path
       d="m59.63954,170.13616l3.81863,-0.32109l1.46322,8.56015l-8.20675,0.75114l-7.45559,-2.58966l-0.32903,-5.53482l10.70952,-0.86572"
       id="svg_26" />
    <path
       d="m35.72304,164.43851l7.11594,-0.39357l0.87322,7.1305l5.21783,-0.17356l0.32903,5.53482l-5.44824,0.66585l-1.10999,0.38206l-0.77673,0.21205l-0.9003,0.05824l-0.79628,-1.48654l-3.85798,-10.98926l-0.6465,-0.94059"
       id="svg_27" />
    <path
       d="m38.00111,154.51494l6.36778,2.54916l-1.52991,6.98084l-7.11594,0.39357l2.27807,-9.92357"
       id="svg_28" />
    <path
       d="m54.28151,156.53988l2.20825,-0.16734l0.38109,6.90543l1.3595,0.61351l1.63248,3.38389l0.06014,1.59902l-0.17019,0.90836l-0.11324,0.35341l-10.70951,0.86572l-5.21673,0.14845l-0.87432,-7.10539l1.52991,-6.98084l9.91262,-0.52422"
       id="svg_29" />
    <path
       d="m68.93718,166.13878l0.53701,3.18739l-6.01602,0.4889l-3.81863,0.32109l0.11324,-0.35341l0.17019,-0.90836l-0.06014,-1.59902l-1.63248,-3.38389l-1.3595,-0.61351l-0.38109,-6.90543l5.95694,-2.68879l4.50221,4.06369l1.98828,8.39134l-0.00001,0z"
       id="svg_30" />
    <path
       d="m83.17562,154.64421l-0.42552,3.01482l-2.34449,9.4573l-10.93142,2.20984l-0.53701,-3.18739l-1.98828,-8.39134l-0.15107,-2.00122l16.37779,-1.10201"
       id="svg_31" />
    <path
       d="m81.19101,149.22135l13.8383,-1.05781l0.58858,8.11635l-7.30959,2.9914l-5.55821,-1.61226l0.42553,-3.01482l-1.98461,-5.42286"
       id="svg_32" />
    <path
       d="m95.6179,156.27989l5.22622,-0.14347l1.43553,4.07749l-1.20366,7.79515l-5.78688,1.70079l-1.4307,-1.30083l-1.1508,-0.83239l-0.338,-0.13431l-3.10854,0.22558l-0.56885,-6.42137l-0.21195,-1.85185l-0.17196,-0.12339l7.30959,-2.9914"
       id="svg_33" />
    <path
       d="m100.84412,156.13642l11.90694,-1.09553l7.44589,2.48065l0.35281,4.99287l-4.6639,0.69304l-2.29437,0.97442l-3.51963,0.18942l-2.44575,-1.01956l-2.0849,-3.38562l-3.26156,0.2478l-1.43553,-4.07749"
       id="svg_34" />
    <path
       d="m120.19694,157.52154l6.11903,-2.25815l0.62025,6.73494l8.258,-0.84662l0.47238,5.32029l1.27529,-0.10692l0.3582,4.12794l-0.77447,5.02666l-7.47248,0.68199l-0.58788,-0.6267l-5.21667,-1.31132l-7.20113,0.52016l-0.45332,-2.37285l4.95562,-9.89655l-0.35282,-4.99287"
       id="svg_35" />
    <path
       d="m139.1919,158.97784l2.95407,1.80929l1.81129,1.04239l2.59303,0.79797l4.41459,2.43087l0.37526,0.44l0.31029,0.6833l-0.50931,0.05729l-2.2225,1.97667l0.1112,1.17773l-1.57214,1.92195l-2.93682,0.93175l-7.22077,-1.75403l-0.3582,-4.12794l-1.27529,0.10692l-0.47238,-5.32029l3.99768,-2.17387"
       id="svg_36" />
    <path
       d="m157.26361,151.69495l3.31083,1.434l13.26859,10.35614l1.9724,3.80421l-3.61209,6.17271l-1.38194,-0.67967l-1.55226,-0.59301l-1.8891,0.64831l-2.85394,0.69284l-4.36542,-0.49927l-0.41052,-0.29675l-4.10989,-4.17677l-1.45485,-14.02949l1.58849,-2.37736l1.4897,-0.45589"
       id="svg_37" />
    <path
       d="m151.65043,166.18166l3.98985,2.37603l4.10989,4.17677l2.22101,2.84136l-0.13818,1.00391l-0.54957,0.5623l-6.72238,4.1285l-0.11562,-0.00508l-3.64198,-0.65215l-6.28259,-8.36625l2.93682,-0.93175l1.57214,-1.92195l-0.1112,-1.17773l2.2225,-1.97667l0.50931,-0.05729"
       id="svg_38" />
    <path
       d="m172.20335,173.46201l-0.59754,7.59369l-2.31943,3.11269l-2.56412,0.68747l-0.71519,0.29441l-0.26296,0.38302l-0.27426,1.87757l-5.09153,-0.78093l-0.48039,3.11014l-2.02824,0.18971l-7.06624,-9.31648l3.64198,0.65215l0.11562,0.00508l6.72237,-4.1285l0.54957,-0.5623l0.13818,-1.00391l-2.22101,-2.84136l0.41052,0.29675l4.36542,0.49927l2.85394,-0.69284l1.8891,-0.64831l1.55226,0.59301l1.38194,0.67967"
       id="svg_39" />
    <path
       d="m137.30008,170.49302l7.22077,1.75403l6.28259,8.36625l7.06624,9.31648l-11.30288,1.0243l0.82509,10.15026l9.6771,-0.76622l1.15042,0.18079l-1.57968,10.34156l-8.19816,0.14336l-0.6221,-1.41373l-0.58456,-4.16684l-0.58056,-5.41193l-3.99452,-6.31107l-2.41144,-1.96647l-1.30858,-1.44386l-3.29896,-6.24073l0.88476,-8.52952l0.77447,-5.02666"
       id="svg_40" />
    <path
       d="m165.46985,187.41086l2.28265,10.34455l-4.46871,2.34868l-0.56773,5.01762l0.13486,0.96881l0.58003,0.97028l1.15109,1.65051l0.4611,1.45372l-0.1078,3.11564l-0.35301,3.17727l-0.35116,3.21717l-4.59824,0.68146l-0.26137,-0.06577l-0.79882,-0.68665l-0.70078,-1.10587l-0.34816,-1.05781l-0.88407,-6.58l1.57968,-10.34156l-1.15042,-0.18079l-9.6771,0.76622l-0.82509,-10.15026l11.30288,-1.0243l2.02825,-0.18971l0.48039,-3.11014l5.09153,0.78093"
       id="svg_41" />
    <path
       d="m184.97414,186.82977l1.74195,14.1688l-0.61722,0.04168l-3.40688,0.25954l-2.48339,0.00322l-4.66319,-0.72594l-6.14855,-1.6056l-1.64436,-1.21606l-2.28265,-10.34455l0.27426,-1.87757l0.26296,-0.38302l0.71519,-0.29441l2.56412,-0.68747l2.31943,-3.11269l0.12388,0.55929l0.11867,0.18258l3.16157,1.12338l1.87179,0.15818l8.09243,3.75064"
       id="svg_42" />
    <path
       d="m190.59847,173.16166l-5.62433,13.66811l-8.09243,-3.75064l-1.87179,-0.15818l-3.16157,-1.12338l-0.11867,-0.18258l-0.12388,-0.55929l0.59754,-7.59369l3.61209,-6.17271l0.02241,0.14941l2.04316,2.10958l2.64841,1.76329l5.49204,1.30531l3.91672,0.66059l0.66029,-0.11582"
       id="svg_43" />
    <path
       d="m179.79892,155.29396l1.26988,0.42859l1.87709,1.43986l1.00101,0.28646l2.90359,-1.08162l2.14228,0.18091l1.12536,0.42224l0.70031,0.37462l1.25356,1.13014l0.14832,0.33231l-0.00226,1.28859l-1.61959,13.0656l-0.66029,0.11582l-3.91672,-0.66059l-5.49204,-1.30531l-2.64841,-1.76329l-2.04316,-2.10958l-0.02241,-0.14941l-1.9724,-3.80421l5.95589,-8.19113"
       id="svg_44" />
    <path
       d="m35.06002,87.33411l3.64477,9.16632l-11.22846,5.26648l-3.17742,-13.79377l10.76111,-0.63903"
       id="svg_45" />
    <path
       d="m19.20803,66.06278l4.49846,-0.22248l2.16973,-0.44415l6.25302,-0.36265l0.77081,4.29446l-0.27756,2.61226l-2.86725,2.89317l-6.02431,2.65687l-1.86419,0.08108l-2.65871,-11.50856"
       id="svg_46" />
    <path
       d="m31.60748,56.05491l4.79735,0.30829l-1.68767,6.28612l-2.73936,0.14403l0.15145,2.24015l-6.25302,0.36265l-2.16973,0.44415l-4.49846,0.22248l-0.67352,-2.88206l-1.24757,-5.39053l6.28194,-0.36138l-0.0344,-0.78343l8.07299,-0.59047"
       id="svg_47" />
    <path
       d="m29.1195,33.15108l3.06801,8.94555l0.16722,2.12861l-0.26225,6.30525l-0.78389,0.04522l0.29889,5.4792l-8.07299,0.59047l0.0344,0.78343l-6.28194,0.36138l-2.19188,-9.52607l2.86348,-0.16754l2.2117,-4.36992l2.05184,-1.05746l3.14516,-2.13163l0.35208,-0.92936l1.92616,-6.35891l1.47401,-0.09822"
       id="svg_48" />
    <path
       d="m27.64549,33.2493l-1.92616,6.35891l-0.35208,0.92936l-3.14516,2.13163l-2.05184,1.05746l-2.2117,4.36992l-2.86348,0.16754l-2.71799,-10.98266l-0.69797,-2.9845l15.96638,-1.04766"
       id="svg_49" />
    <path
       d="m31.27796,14.158l6.30067,-0.45832l-0.90101,2.96137l-2.84421,10.28606l-0.18724,1.54473l1.22082,2.0409l-5.15159,0.9178l-0.33965,-4.55067l-4.49787,0.29129l0.06771,-0.38798l0.70154,-1.88052l0.53276,-2.48884l2.41236,-0.61087l0.97326,-1.80346l1.663,-5.14693l-0.06695,-0.70158l0.11641,-0.01298"
       id="svg_50" />
    <path
       d="m20.36831,15.04751l10.79325,-0.87653l0.06694,0.70158l-1.663,5.14693l-0.97326,1.80346l-2.41236,0.61087l-0.53276,2.48884l-5.27881,-9.87515"
       id="svg_51" />
    <path
       d="m20.36831,15.04751l5.27881,9.87515l-0.70154,1.88052l-0.06771,0.38798l4.49787,-0.29129l0.33965,4.55067l-0.5959,1.70054l-1.47401,0.09822l-15.96638,1.04766l-0.38498,-1.62052l1.51463,-2.26114l1.24951,-4.30354l-0.12871,-1.76853l1.09345,-5.28416l1.61259,-3.66859l3.73272,-0.34297"
       id="svg_52" />
    <path
       d="m16.6356,15.39048l-1.61259,3.66859l-1.09345,5.28416l0.12871,1.76853l-1.24951,4.30354l-1.51464,2.26114l-2.58856,-10.9625l-1.2168,-5.76202l5.03762,-0.30017l4.10921,-0.26127"
       id="svg_53" />
    <path
       d="m165.1589,142.03963l0.94059,1.25033l1.98782,4.52527l0.08997,0.50713l5.3823,4.54754l5.91354,2.42424l0.3258,-0.00018l-5.95589,8.19113l-13.26859,-10.35614l4.58445,-11.08932"
       id="svg_54" />
    <path
       d="m149.9186,148.40063l7.34502,3.29432l-1.4897,0.45589l-1.58849,2.37736l1.45485,14.02949l-3.98985,-2.37603l-0.31029,-0.6833l-0.37526,-0.44l-4.41459,-2.43087l-2.59303,-0.79797l-1.81129,-1.04239l-2.95407,-1.80929l-0.53888,-5.94947l3.50349,-0.31682l-0.43131,-4.68862l-0.16489,-1.27421l8.35829,1.65191"
       id="svg_55" />
    <path
       d="m141.56031,146.74872l0.16489,1.27421l0.43131,4.68862l-3.50349,0.31682l0.53888,5.94947l-3.99768,2.17387l-8.258,0.84662l-0.62025,-6.73494l7.04607,-5.48262l3.83514,-2.26426l2.4022,-0.79231l1.96092,0.02452"
       id="svg_56" />
    <path
       d="m53.05967,141.98486l0.37515,-0.0523l0.37577,0.3459l0.19448,2.66193l0.12218,3.15469l-0.16319,3.38832l0.31744,5.05648l-9.91262,0.52422l-6.36778,-2.54916l0.04448,-3.48765l4.60148,-8.17816l10.41261,-0.86427"
       id="svg_57" />
    <path
       d="m53.43482,141.93256l1.11488,-0.0814l3.15284,2.47686l0.80057,1.05956l1.76713,0.64589l2.06229,-0.14116l0.11416,7.79144l-5.95694,2.68879l-2.20825,0.16734l-0.31744,-5.05648l0.16319,-3.38832l-0.12218,-3.15469l-0.19448,-2.66193l-0.37577,-0.3459"
       id="svg_58" />
    <path
       d="m71.77819,140.66703l6.25151,2.22913l3.16132,6.32519l1.98461,5.42286l-16.3778,1.10201l0.15108,2.00122l-4.50221,-4.06369l-0.11416,-7.79144l-0.06441,-1.50148l9.51007,-3.7238"
       id="svg_59" />
    <path
       d="m105.39034,143.60831l6.02989,9.09363l1.33083,2.33895l-11.90694,1.09553l-5.22622,0.14347l-0.58858,-8.11635l-0.32659,-4.1881l4.64039,-0.40448l2.10801,-0.52287l0.7253,-0.44238l1.63674,-0.09468l0.42927,0.11658l1.14791,0.9807"
       id="svg_60" />
    <path
       d="m121.32668,140.77109l12.03536,9.00968l-7.04607,5.48262l-6.11903,2.25815l-7.44589,-2.48065l-1.33083,-2.33895l9.90646,-11.93085"
       id="svg_61" />
    <path
       d="m128.61905,131.90378l2.64132,0.27522l0.35892,0.07003l0.28457,0.93919l1.17936,4.71785l0.19111,2.49165l1.00555,3.7292l0.37341,0.72951l0.16404,0.30403l2.37986,2.35605l-3.83514,2.26426l-12.03536,-9.00968l1.42004,-2.99289l5.87232,-5.87442"
       id="svg_62" />
    <path
       d="m104.328,135.8947l7.48639,-7.76194l6.98252,12.29563l3.94981,-2.65019l-1.42004,2.99289l-9.90645,11.93085l-6.02989,-9.09363l1.02259,-1.03023l0.13213,-0.37068l0.34145,-2.17145l-3.54284,-2.9935l0.98432,-1.14775"
       id="svg_63" />
    <path
       d="m104.328,135.8947l-0.98432,1.14775l3.54284,2.9935l-0.34145,2.17145l-0.13213,0.37068l-1.02259,1.03023l-1.14791,-0.9807l-0.42927,-0.11658l-1.63674,0.09468l-0.7253,0.44238l-2.10801,0.52287l-4.64039,0.40448l-0.97055,-7.90869l4.12966,-5.67577l6.46616,5.50372"
       id="svg_64" />
    <path
       d="m93.73217,136.06675l0.97056,7.90869l0.32658,4.1881l-13.8383,1.05781l-3.16132,-6.32519l6.56503,-6.1517l9.13745,-0.67771"
       id="svg_65" />
    <path
       d="m77.12028,127.24354l6.86,1.2314l0.61444,8.26952l-6.56502,6.1517l-6.2515,-2.22913l-3.38544,-6.41467l7.29939,-7.62535l1.42814,0.61653"
       id="svg_66" />
    <path
       d="m64.03957,133.39163l4.35319,0.86073l3.38544,6.41467l-9.51007,3.7238l-0.20908,-3.07162l0.58433,-2.17889l0.71703,-0.99659l-0.51491,-5.42351l1.19407,0.67141zm0,0l0,0"
       id="svg_67" />
    <path
       d="m52.83409,127.8247l7.43651,-1.84195l2.5749,6.73747l0.51491,5.42351l-0.71704,0.99659l-0.58433,2.17889l0.20908,3.07162l0.06442,1.50148l-2.06229,0.14116l-1.76713,-0.64589l-0.80057,-1.05956l-3.15284,-2.47686l-1.11488,0.0814l-0.37515,0.0523l-0.22558,-14.16016"
       id="svg_68" />
    <path
       d="m52.83409,127.8247l0.22558,14.16016l-10.41261,0.86427l0.09979,-0.12956l0.38955,-1.45258l-0.35612,-0.79391l-0.92582,-0.84426l-2.55628,-0.81083l-0.23363,-0.28537l-0.06582,-0.39747l0.51011,-1.64277l4.12216,-1.95845l4.33495,-1.03329l2.68848,-4.75802l2.17966,-0.91792"
       id="svg_69" />
    <path
       d="m35.15377,125.69487l6.85913,-0.48084l0.08075,1.12933l8.31807,-0.64851l0.24271,3.04777l-2.68847,4.75802l-4.33495,1.03329l-4.12216,1.95845l-0.80164,-6.47863l-3.55344,-4.31888"
       id="svg_70"
       fill="#ff00ff" />
    <path
       d="m65.74683,116.84389l3.47757,2.4187l8.38805,6.8297l-1.9203,0.53472l-7.29939,7.62535l-4.35319,-0.86073l-1.19407,-0.67141l-2.57489,-6.73747l5.47623,-9.13886"
       id="svg_71" />
    <path
       d="m56.67462,111.25114l0.35272,-0.11846l0.83292,0.23927l2.5631,1.81025l0.58655,0.82211l0.44259,0.96785l0.08249,0.34751l0.34548,0.2939l1.90812,0.81496l1.95825,0.41536l-5.47623,9.13886l-7.43651,1.84195l-2.17966,0.91792l-0.24271,-3.04777l-1.1325,-12.13661l7.3954,-2.3071"
       id="svg_72" />
    <path
       d="m42.9051,112.72102l6.37413,0.83722l1.1325,12.13661l-8.31807,0.64851l-0.08076,-1.12933l-6.85913,0.48084l-2.54239,-6.32336l-2.24608,-5.65153l12.5398,-0.99896"
       id="svg_73" />
    <path
       d="m38.70479,96.50043l3.07584,1.34406l1.12447,14.87653l-12.5398,0.99896l-2.65358,-10.96536l-0.23539,-0.98771l11.22846,-5.26648"
       id="svg_74" />
    <path
       d="m32.90005,69.32796l5.35343,1.08201l4.28574,9.40803l-1.40373,3.03343l-6.07548,4.48268l-10.76111,0.63903l-0.59072,-2.54178l-1.84144,-7.86002l1.86419,-0.08108l6.02431,-2.65687l2.86725,-2.89317l0.27756,-2.61226"
       id="svg_75" />
    <path
       d="m36.40483,56.3632l7.09707,-0.3763l0.39899,6.16775l0.62853,-0.05205l0.42237,6.62489l-6.69831,1.68248l-5.35343,-1.08201l-0.77081,-4.29446l-0.15145,-2.24015l2.73936,-0.14403l1.68767,-6.28612"
       id="svg_76" />
    <path
       d="m44.73092,13.13758l0.57476,6.20441l1.41754,1.18802l0.09121,0.1488l-0.02095,0.14748l-0.87806,1.36599l-1.05653,1.06134l-0.54958,2.12974l0.61378,6.7998l-10.0561,-1.65042l-1.22082,-2.0409l0.18724,-1.54473l2.84421,-10.28606l0.90101,-2.96137l1.30419,-0.10565l5.8481,-0.45645"
       id="svg_77" />
    <path
       d="m34.86699,30.53274l10.05611,1.65042l0.12517,1.60187l0.52033,6.37218l-13.38109,1.93942l-3.06801,-8.94555l0.5959,-1.70054l5.15159,-0.9178"
       id="svg_78" />
    <path
       d="m45.5686,40.15721l0.95933,15.66928l-10.1231,0.53671l-4.79735,-0.30829l-0.29889,-5.4792l0.78389,-0.04522l0.26225,-6.30525l-0.16722,-2.12861l13.38109,-1.93942"
       id="svg_79" />
    <path
       d="m46.52793,55.82649l9.22349,-0.49293l1.3963,3.56899l-1.62172,5.60848l-0.5171,1.80173l-0.2571,0.66204l-2.53896,2.91842l-1.38323,1.32935l-5.87783,-2.49508l-0.42237,-6.62489l-0.62853,0.05205l-0.39899,-6.16775l3.02604,-0.16041"
       id="svg_80" />
    <path
       d="m38.25348,70.40997l6.69831,-1.68248l5.87783,2.49508l-2.58297,3.75633l-3.7468,2.14867l-1.55632,1.64393l-0.33085,0.44521l-0.07345,0.60129l-4.28574,-9.40803"
       id="svg_81" />
    <path
       d="m41.13549,82.85143l9.34041,-0.27061l0.34486,4.84411l2.38515,2.48297l1.65071,2.2263l0.82957,1.55315l-0.0461,1.71021l-13.85947,2.44693l-3.07584,-1.34406l-3.64477,-9.16632l6.07548,-4.48268"
       id="svg_82" />
    <path
       d="m55.97241,97.14609l-0.39228,10.00995l1.09449,4.0951l-7.3954,2.3071l-6.37413,-0.83722l-1.12447,-14.87653l13.85947,-2.44693l0.33232,1.74853"
       id="svg_83" />
    <path
       d="m55.97241,97.14609l1.67306,-1.33473l2.23966,-0.14063l0.84811,0.80104l4.85477,-0.34077l-0.10763,9.29846l-9.90025,1.72658l0.39228,-10.00995"
       id="svg_84" />
    <path
       d="m65.48038,105.42946l5.91985,2.27973l0.26846,3.86337l-2.44429,7.69003l-3.47756,-2.4187l-1.95825,-0.41536l-1.90812,-0.81496l-0.34548,-0.2939l-0.08249,-0.34751l-0.44259,-0.96785l-0.58655,-0.82211l-2.5631,-1.81025l-0.83292,-0.23927l-0.35272,0.11846l-1.09449,-4.0951l9.90025,-1.72658"
       id="svg_85" />
    <path
       d="m71.66869,111.57256l9.0363,-0.68213l8.0628,6.65253l-0.00065,0.01444l-11.1547,8.53489l-8.38805,-6.8297l2.4443,-7.69003"
       id="svg_86" />
    <path
       d="m77.61244,126.09229l11.1547,-8.53489l-0.09403,7.50359l-0.08049,0.51412l-2.62408,3.70384l-0.73534,0.42383l-0.39401,0.0696l-0.8589,-1.29744l-6.86,-1.2314l-1.42944,-0.61589l1.9216,-0.53536"
       id="svg_87" />
    <path
       d="m88.76714,117.5574l0.00065,-0.01444l4.14658,0.94941l4.75413,9.5408l0.19334,2.35781l-4.12966,5.67577l-9.13745,0.67771l-0.61444,-8.26952l0.8589,1.29744l0.39401,-0.0696l0.73534,-0.42383l2.62408,-3.70384l0.08049,-0.51412l0.09403,-7.50359"
       id="svg_88" />
    <path
       d="m111.81439,128.13276l-7.48639,7.76194l-6.46617,-5.50372l-0.19334,-2.35781l10.03831,-7.09972l4.10759,7.19931"
       id="svg_89" />
    <path
       d="m107.7068,120.93345l9.97189,-6.74063l3.64002,-0.70541l3.11697,1.06712l4.90541,3.04245l0.16261,4.13022l1.10698,0.42868l-1.99163,9.7479l-5.87232,5.87442l-3.94981,2.65019l-6.98253,-12.29563l-4.10759,-7.19931"
       id="svg_90" />
    <path
       d="m101.17876,105.45776l7.22602,-4.13897l0.60656,-0.45844l0.58387,0.05819l2.51815,2.58655l1.94457,3.53151l1.72218,0.68012l0.63258,0.43319l0.96885,1.67872l0.46875,1.93913l-0.1716,2.42506l-9.97189,6.74063l-8.34112,-14.00232l1.81309,-1.47337"
       id="svg_91" />
    <path
       d="m95.4574,109.78948l3.90827,-2.85835l8.34113,14.00232l-10.0383,7.09972l-4.75413,-9.5408l0.43626,-3.50666l2.64963,-3.13078l0.45683,-1.17089l-0.99968,-0.89456"
       id="svg_92" />
    <path
       d="m87.35943,105.42319l0.7141,1.62772l1.57555,1.21668l2.33599,-0.1907l1.34138,0.36657l2.13096,1.34602l0.99968,0.89456l-0.45683,1.17089l-2.64963,3.13078l-0.43626,3.50666l-4.14658,-0.94941l-8.0628,-6.65253l6.65444,-5.46724"
       id="svg_93"
       fill="#ff00ff" />
    <path
       d="m103.32232,92.99072l0.80195,-0.04443l6.18175,1.09665l0.11475,0.18965l0.01325,0.2757l-0.06347,0.37369l-0.21966,0.13877l-0.16165,0.38386l-0.22753,1.72033l0.10226,0.39182l0.76277,1.26063l1.00411,-0.77402l0.74227,-0.82898l-0.25976,6.3307l-2.51815,-2.58655l-0.58387,-0.05819l-0.60656,0.45844l-7.22602,4.13897l-3.85275,-11.85057l5.99631,-0.61647"
       id="svg_94" />
    <path
       d="m97.32601,93.60719l3.85275,11.85057l-1.81309,1.47337l-3.90827,2.85835l-2.13096,-1.34602l-1.34138,-0.36657l-2.33599,0.1907l-1.57555,-1.21668l-0.7141,-1.62772l-4.80329,-8.00812l10.31851,-2.76161l4.45137,-1.04627"
       id="svg_95" />
    <path
       d="m73.55102,94.8298l8.58221,0.34409l0.4229,2.24118l4.8033,8.00812l-6.65444,5.46724l-9.0363,0.68213l-0.26846,-3.86337l2.69367,-0.17499l0.33209,-0.80353l-0.87497,-11.90087"
       id="svg_96" />
    <path
       d="m73.55102,94.8298l0.87498,11.90087l-0.33209,0.80353l-2.69367,0.17499l-5.91985,-2.27973l0.10763,-9.29846l4.76633,-1.04693l3.19668,-0.25427"
       id="svg_97" />
    <path
       d="m59.5808,88.91348l1.29319,-0.10251l9.93917,1.75748l-0.45882,4.51562l-4.76633,1.04693l-4.85477,0.34077l-0.84811,-0.80104l-2.23966,0.14063l-1.67306,1.33473l-0.33232,-1.74853l0.0461,-1.71021l3.8946,-4.77387"
       id="svg_98" />
    <path
       d="m50.4759,82.58082l5.65457,-2.7274l3.45033,9.06006l-3.8946,4.77387l-0.82957,-1.55315l-1.65071,-2.2263l-2.38515,-2.48297l-0.34486,-4.84411"
       id="svg_99" />
    <path
       d="m62.59857,74.83775l0.78437,0.68601l0.27634,2.28181l-0.02453,1.54826l-0.7402,5.401l-0.34372,0.40844l-1.87563,0.75389l0.19879,2.89381l-1.29319,0.10251l-3.45033,-9.06006l3.81481,-4.85338l2.65329,-0.16229"
       id="svg_100" />
    <path
       d="m77.13912,82.85331l2.6624,3.67161l2.33171,8.64897l-8.58221,-0.34409l-3.19668,0.25427l0.45882,-4.51562l6.32596,-7.71514"
       id="svg_101" />
    <path
       d="m62.59857,74.83775l3.74287,-0.24478l5.86326,5.13699l4.93441,3.12335l-6.32595,7.71514l-9.93918,-1.75748l-0.19879,-2.89381l1.87563,-0.75389l0.34372,-0.40844l0.74021,-5.401l0.02452,-1.54826l-0.27633,-2.28181l-0.78437,-0.68601"
       id="svg_102" />
    <path
       d="m61.61818,60.30781l10.49583,8.78647l-1.16614,1.33162l-2.42404,4.6719l-2.18238,-0.50483l-3.74288,0.24478l-2.65329,0.16229l-0.2394,-3.45306l-0.18702,-2.83174l-0.024,-0.44269l-0.60156,-7.90334l2.72488,-0.0614"
       id="svg_103"
       fill="#0000ff" />
    <path
       d="m61.45182,49.58193l6.69459,5.82505l-6.52823,4.90083l-2.72488,0.0614l0.60156,7.90334l0.024,0.44269l0.18702,2.83174l0.2394,3.45306l-3.81481,4.85338l-5.65457,2.7274l-9.34041,0.27061l1.40374,-3.03343l0.07345,-0.60129l0.33085,-0.44521l1.55632,-1.64393l3.7468,-2.14867l2.58297,-3.75633l1.38323,-1.32935l2.53896,-2.91842l0.2571,-0.66204l0.51709,-1.80173l1.62172,-5.60848l-1.3963,-3.56899l5.70041,-5.75163"
       id="svg_104"
       fill="#0000ff" />
    <path
       d="m60.7914,40.46332l0.11945,2.14463l0.54097,6.97398l-5.7004,5.75163l-9.22349,0.49293l-0.95933,-15.66928l15.2228,0.30611"
       id="svg_105" />
    <path
       d="m45.04827,33.78503l3.57012,-0.35009l7.19873,-0.46597l0.93043,-0.74468l0.05361,0.67566l1.28944,3.6946l2.40383,-0.16961l0.29697,4.03838l-15.2228,-0.30611l-0.52033,-6.37218"
       id="svg_106" />
    <path
       d="m62.20148,29.20211l0.37531,0.68614l8.6611,7.9494l1.18253,3.90349l-11.50957,0.86681l-0.11945,-2.14463l-0.29697,-4.03838l-2.40383,0.16961l-1.28944,-3.6946l-0.0536,-0.67566l5.45392,-3.02218"
       id="svg_107" />
    <path
       d="m60.91085,42.60795l11.50957,-0.86681l-3.4101,8.08565l-0.86391,5.58019l-6.69459,-5.82505l-0.54097,-6.97398"
       id="svg_108" />
    <path
       d="m78.55437,50.93707l1.51277,9.16325l-6.47454,7.3068l-1.47858,1.68716l-10.49584,-8.78647l6.52823,-4.90083l0.86391,-5.58019l9.54406,1.11028"
       id="svg_109" />
    <path
       d="m76.33998,69.1422l-4.13527,10.58776l-5.86326,-5.13699l2.18238,0.50483l2.42404,-4.6719l1.16614,-1.33162l1.47858,-1.68716l2.74739,1.73508"
       id="svg_110" />
    <path
       d="m92.25244,82.35464l0.62221,12.29882l-10.31852,2.76161l-0.4229,-2.24118l-2.33171,-8.64897l6.35479,-7.96003l6.09613,3.78975"
       id="svg_111" />
    <path
       d="m76.33998,69.1422l9.58487,6.11842l0.23146,3.30427l-6.35479,7.96003l-2.6624,-3.67161l-4.93441,-3.12335l4.13527,-10.58776"
       id="svg_112" />
    <path
       d="m80.06714,60.10032l5.92448,0.60753l5.77949,3.66363l-5.84626,10.88914l-9.58487,-6.11842l-2.74738,-1.73508l6.47454,-7.3068"
       id="svg_113" />
    <path
       d="m78.55437,50.93707l1.42022,1.95193l0.63241,0.4368l3.56695,0.87693l0.93,-0.07504l3.15709,0.15305l0.43281,0.28326l1.25518,2.99084l-3.95741,3.15301l-5.92448,-0.60753l-1.51277,-9.16325"
       id="svg_114" />
    <path
       d="m94.14333,46.28188l2.28034,7.18064l-6.47464,4.09232l-1.25518,-2.99084l-0.43281,-0.28326l-3.15709,-0.15305l-0.93,0.07504l-3.56695,-0.87693l-0.63241,-0.4368l-1.42022,-1.95193l6.88503,-8.49422l1.1465,1.01322l0.76182,0.54021l0.44809,0.18258l1.67262,-0.25239l1.43641,-0.39668l2.30292,1.88207l0.93557,0.87002"
       id="svg_115" />
    <path
       d="m96.42367,53.46252l4.07877,1.58716l-0.31137,0.00082l-0.30813,2.15481l0.02664,0.13511l0.16289,0.41257l1.50895,1.66261l-1.09792,2.74639l-10.53448,-4.60715l6.47464,-4.09232"
       id="svg_116"
       fill="#ff00ff" />
    <path
       d="m85.99162,60.70785l3.95741,-3.15301l10.53448,4.60715l0.16249,4.05059l-4.55412,3.38745l-4.32076,-5.22855l-5.77949,-3.66363"
       id="svg_117" />
    <path
       d="m96.09188,69.60003l5.75051,9.60264l-9.58995,3.15197l-6.09613,-3.78975l-0.23146,-3.30427l5.84626,-10.88914l4.32076,5.22855"
       id="svg_118" />
    <path
       d="m92.25244,82.35464l9.58995,-3.15197l5.00425,5.5735l0.54276,0.33511l0.27417,0.26907l0.06576,0.15129l-0.39239,1.51763l-1.6042,1.1676l-1.08286,0.50632l-0.83715,0.84653l-0.54482,2.76342l-0.00632,0.47392l0.06072,0.18366l-5.9963,0.61647l-4.45137,1.04627l-0.6222,-12.29882"
       id="svg_119" />
    <path
       d="m118.51165,79.54332l1.21132,0.69026l1.82494,5.26745l1.52146,2.53193l0.3574,0.68175l-1.14537,0.11625l-2.75042,2.21052l-0.42823,0.76671l-0.36922,1.31954l-0.29752,0.758l-0.42436,0.5135l-3.9369,2.60369l-1.70164,0.17147l-0.74227,0.82898l-1.00411,0.77402l-0.76277,-1.26063l-0.10226,-0.39182l0.22753,-1.72033l0.16165,-0.38386l0.21966,-0.13877l0.06347,-0.37369l-0.01325,-0.2757l-0.11475,-0.18965l-6.18175,-1.09665l-0.80195,0.04443l-0.06072,-0.18366l0.00632,-0.47392l0.54482,-2.76342l0.83715,-0.84653l1.08286,-0.50632l1.6042,-1.1676l0.39239,-1.51763l-0.06576,-0.15129l-0.27417,-0.26907l-0.54276,-0.33511l5.34639,-5.85046l6.31861,0.61761"
       id="svg_120" />
    <path
       d="m113.51505,66.37195l2.62738,4.38682l0.52693,0.61318l0.08311,0.00365l4.74433,-0.29857l2.94549,0.52022l-1.33868,1.88153l-3.73662,2.98893l-1.3552,1.92787l-0.05915,0.19289l0.55901,0.95485l-6.31861,-0.61761l-0.305,-10.53646l1.62701,-2.0173"
       id="svg_121" />
    <path
       d="m111.88804,68.38925l0.305,10.53646l-5.34639,5.85046l-5.00425,-5.5735l-5.75052,-9.60264l4.55412,-3.38745l11.24204,2.17667"
       id="svg_122" />
    <path
       d="m111.10917,51.9894l7.85707,2.67969l-2.48551,1.70087l-0.82179,0.90873l-2.21597,3.64212l-1.59305,3.14095l-0.02445,0.22697l1.68957,2.08322l-1.62701,2.0173l-11.24204,-2.17667l-0.16249,-4.05059l1.09792,-2.74639l-1.50895,-1.66261l-0.16289,-0.41257l-0.02664,-0.13511l0.30813,-2.15481l0.31137,-0.00082l4.56479,-2.64129l0.27963,-0.02031l0.54213,0.34959l2.05803,0.69847l0.51758,0.08425l2.64457,-1.53099"
       id="svg_123" />
    <path
       d="m118.96625,54.66909l5.04535,-1.13603l7.96885,15.47376l-6.40391,2.06826l-1.13425,0.52217l-2.94549,-0.52022l-4.74433,0.29857l-0.08311,-0.00365l-0.52693,-0.61318l-2.62738,-4.38682l-1.68958,-2.08322l0.02445,-0.22697l1.59306,-3.14095l2.21597,-3.64212l0.82179,-0.90873l2.48551,-1.70087"
       id="svg_124" />
    <path
       d="m125.57653,71.07508l2.14041,4.76001l3.23169,6.70114l1.68248,0.59511l4.55257,0.77175l-1.68414,1.91705l-2.75787,-1.08394l-2.42334,-0.87015l-1.16025,0.3726l-6.08871,3.79431l-1.52147,-2.53193l-1.82494,-5.26745l-1.21132,-0.69026l-0.55901,-0.95485l0.05915,-0.19289l1.3552,-1.92787l3.73662,-2.98893l1.33868,-1.88153l1.13425,-0.52217"
       id="svg_125" />
    <path
       d="m134.02131,68.28192l-0.364,0.45823l-0.05962,0.61639l0.47525,3.68783l2.40112,3.68548l3.29865,4.35113l0.67732,0.48582l-2.10226,2.20639l-1.16409,0.1299l-4.55257,-0.77175l-1.68248,-0.59511l-3.23169,-6.70114l-2.14041,-4.76001l6.40392,-2.06826l2.04086,-0.7249"
       id="svg_126" />
    <path
       d="m123.06937,88.03296l6.08872,-3.79431l1.16025,-0.3726l2.42334,0.87015l2.75787,1.08394l-1.39327,1.3108l-4.04953,4.09738l0.11087,0.44288l0.22415,1.98632l-3.11505,-0.03898l-3.84994,-4.90383l-0.3574,-0.68175"
       id="svg_127" />
    <path
       d="m137.18368,83.90309l1.16409,-0.1299l3.52464,1.75831l0.21472,0.05649l0.31375,0.2744l1.00705,1.22068l-0.96576,3.77662l-0.35003,2.03713l-0.16447,2.26247l0.24208,1.1654l0.37913,1.34152l0.69033,3.24116l-0.60846,2.81131l-0.6132,2.09437l-4.23605,3.89371l-3.66039,-2.4593l-0.63961,-5.13938l-1.58367,-3.67134l-0.11623,0.00939l-1.38426,-0.79198l-1.5259,-1.27603l-0.59862,-0.87695l-0.99611,-1.88263l3.11505,0.03898l-0.22415,-1.98632l-0.11087,-0.44288l4.04953,-4.09738l1.39327,-1.3108l1.68414,-1.91705"
       id="svg_128" />
    <path
       d="m127.27671,93.61854l0.99611,1.88263l0.59862,0.87695l1.52591,1.27603l1.38426,0.79198l0.11623,-0.00939l1.58367,3.67134l0.63961,5.13938l-3.33041,1.48642l-2.16426,0.89687l-4.26206,-0.13276l-1.11727,-0.6065l-5.39683,2.87627l-0.46875,-1.93913l-0.96885,-1.67872l-0.63258,-0.43319l-1.72218,-0.68012l-1.94457,-3.53151l0.25976,-6.3307l1.70164,-0.17147l3.9369,-2.60369l0.42436,-0.5135l0.29752,-0.758l0.36922,-1.31954l0.42823,-0.76671l2.75042,-2.21052l1.14537,-0.11625l3.84994,4.90383"
       id="svg_129" />
    <path
       d="m137.78151,109.70676l-7.17083,12.44912l-1.10698,-0.42868l-0.16261,-4.13022l-4.90541,-3.04245l-3.11697,-1.06712l-3.64002,0.70541l0.1716,-2.42506l5.39683,-2.87627l1.11727,0.6065l4.26206,0.13276l2.16426,-0.89687l3.33041,-1.48642l3.66039,2.4593"
       id="svg_130" />
    <path
       d="m130.61067,122.15588l5.87033,0.10923l1.01324,0.33768l3.36952,1.58137l0.36147,0.34165l-0.18379,2.29059l-0.4054,1.81389l-9.37567,3.54871l-2.64132,-0.27522l1.99162,-9.7479"
       id="svg_131" />
    <path
       d="m140.63604,128.63029l-1.03666,18.09391l-2.4022,0.79231l-2.37986,-2.35605l-0.16404,-0.30403l-0.37341,-0.72951l-1.00555,-3.7292l-0.19111,-2.49165l-1.17936,-4.71785l-0.28457,-0.93919l-0.35892,-0.07003l9.37568,-3.54871"
       id="svg_132" />
    <path
       d="m140.63604,128.63029l7.05727,0.94322l2.31906,8.11266l-0.09377,10.71446l-8.35829,-1.65191l-1.96092,-0.02452l1.03666,-18.09391"
       id="svg_133" />
    <path
       d="m167.45657,140.24726l1.47875,-2.10343l3.28575,1.67544l6.8203,2.63055l2.82195,1.10848l0.30107,0.56344l1.12569,3.05394l0.06161,0.3285l-0.01655,0.12959l0.4026,0.39414l2.85319,2.29355l4.37048,2.36376l0.23875,0.08651l-0.15612,0.34066l0.75983,0.75009l1.04511,0.35356l0.25203,-0.13374l0.07125,-0.2213l0.10418,-0.0642l0.39368,-0.06237l0.33751,0.14513l0.19024,1.93415l0.09965,1.44148l-0.78258,2.57199l-0.42302,0.73077l-0.22984,0.04059l-0.64403,-0.50248l0.00226,-1.28859l-0.14832,-0.33231l-1.25356,-1.13014l-0.70031,-0.37462l-1.12536,-0.42224l-2.14228,-0.18091l-2.90359,1.08162l-1.00101,-0.28646l-1.87708,-1.43986l-1.26988,-0.42859l-0.3258,0.00018l-5.91354,-2.42424l-5.3823,-4.54754l-0.08997,-0.50713l-1.98782,-4.52527l-0.94059,-1.25033l2.29768,-1.79237"
       id="svg_134" />
    <path
       d="m156.00331,130.59344l2.25553,0.24016l7.89034,4.64315l2.78614,2.66708l-1.47875,2.10343l-5.01381,0.41705l-3.72096,-1.07915l-2.71849,-8.99172"
       id="svg_135" />
    <path
       d="m147.69331,129.57351l8.31001,1.01993l2.71849,8.99172l3.72096,1.07915l5.01381,-0.41705l-2.29768,1.79237l-4.58446,11.08932l-3.31083,-1.434l-7.34502,-3.29432l0.09377,-10.71446l-2.31906,-8.11266"
       id="svg_136" />
    <path
       d="m154.55677,118.51905l2.43761,0.95767l2.51665,4.35301l-0.87425,5.89829l-0.37793,1.10558l-2.25553,-0.24016l-8.31001,-1.01993l-0.69982,-1.95289l1.98878,-5.47653l1.04606,-2.30703l2.4926,-2.10962l2.03585,0.79161"
       id="svg_137" />
    <path
       d="m148.78663,106.22958l6.56541,9.01578l-0.79527,3.27369l-2.03585,-0.79161l-2.49259,2.10962l-1.04606,2.30703l-1.98878,5.47653l0.69981,1.95289l-7.05726,-0.94322l0.4054,-1.81389l0.18379,-2.29059l-0.36147,-0.34165l-3.36952,-1.58137l-1.01324,-0.33768l-5.87033,-0.10923l7.17083,-12.44912l4.23605,-3.89371l6.76908,0.41653"
       id="svg_138" />
    <path
       d="m191.47269,129.40625l0.16238,0.91936l0.28686,1.87684l0.41716,2.04184l0.17289,0.18496l2.16301,0.94563l7.18406,1.68361l1.34473,0.20745l0.36929,0.08137l0.17019,0.57579l-0.01792,0.40828l-0.17592,0.70901l-0.45043,0.94314l-6.99037,10.23439l-0.31057,0.39541l-1.92013,2.01528l-0.2803,0.11803l-0.88399,-0.23066l-1.13063,-4.01343l-1.59844,-4.8195l-4.38034,-3.21126l-3.11413,-3.02898l-0.79273,-0.99045l9.77532,-7.04611"
       id="svg_139" />
    <path
       d="m166.14918,135.47675l13.08538,-5.59404l2.4628,6.56965l0.79273,0.99045l3.11413,3.02898l4.38034,3.21126l1.59844,4.8195l1.13063,4.01343l-1.51348,0.25575l-0.23875,-0.08651l-4.37048,-2.36376l-2.85319,-2.29355l-0.4026,-0.39414l0.01655,-0.12959l-0.06161,-0.3285l-1.12569,-3.05394l-0.30107,-0.56344l-2.82194,-1.10848l-6.8203,-2.63055l-3.28575,-1.67544l-2.78614,-2.66708"
       id="svg_140" />
    <path
       d="m161.38953,112.61802l12.2238,6.20167l5.62124,11.06302l-13.08539,5.59404l-7.89034,-4.64315l0.37793,-1.10558l0.87426,-5.89829l-2.51665,-4.35301l-2.43761,-0.95767l0.79526,-3.27369l6.0375,-2.62734"
       id="svg_141" />
    <path
       d="m148.78663,106.22958l-0.15256,-0.31801l0.63811,-3.07427l1.48345,-1.71588l8.52637,-2.59049l1.29949,0.24888l1.64901,0.61536l0.39559,0.30696l0.33611,0.50707l-1.57267,12.40882l-6.03749,2.62734l-6.56541,-9.01578"
       id="svg_142" />
    <path
       d="m179.23166,113.20563l4.00029,1.80816l0.73567,0.31101l3.34271,3.0173l3.76517,8.56709l0.39719,2.49706l-9.77532,7.04611l-2.4628,-6.56965l-5.62124,-11.06302l5.61834,-5.61406"
       id="svg_143" />
    <path
       d="m162.96221,100.2092l8.05548,-7.28449l6.83269,13.40036l1.38129,6.88056l-5.61834,5.61406l-12.22379,-6.20167l1.57267,-12.40882"
       id="svg_144" />
    <path
       d="m141.8724,85.5315l3.60291,-1.75681l0.25935,0.02949l1.2394,0.79287l0.2505,0.56121l2.25915,0.98242l3.74807,0.13191l3.2803,-1.91214l1.51917,0.43953l3.50361,2.89766l6.36604,3.331l3.11679,1.89607l-8.05548,7.28449l-0.33611,-0.50707l-0.39559,-0.30696l-1.64901,-0.61536l-1.29949,-0.24888l-8.52638,2.59049l-1.48345,1.71588l-0.6381,3.07427l0.15256,0.31801l-6.76908,-0.41653l0.6132,-2.09437l0.60846,-2.81131l-0.69033,-3.24116l-0.37913,-1.34152l-0.24208,-1.1654l0.16447,-2.26247l0.35003,-2.03713l0.96575,-3.77662l-1.00705,-1.22068l-0.31375,-0.2744l-0.21472,-0.05649"
       id="svg_145" />
    <path
       d="m149.77884,71.6631l0.60642,0.61666l0.31514,0.32514l1.74876,1.80707l2.45102,3.12658l0.75914,3.56998l2.37193,3.69145l-1.51917,-0.43953l-3.28031,1.91214l-3.74807,-0.13191l-2.25915,-0.98242l-0.25049,-0.56121l-1.23941,-0.79287l-0.25934,-0.02949l-3.60291,1.75681l-3.52464,-1.75831l2.10226,-2.20639l9.32882,-9.9037"
       id="svg_146"
       fill="#ff00ff" />
    <path
       d="m141.79646,65.81772l4.28761,4.08683l3.69478,1.75855l-9.32882,9.9037l-0.67732,-0.48582l-3.29865,-4.35113l-2.40112,-3.68548l-0.47525,-3.68783l0.05962,-0.61639l0.364,-0.45823l7.77515,-2.4642"
       id="svg_147" />
    <path
       d="m124.0116,53.53306l3.2519,1.04408l5.61203,3.68523l0.23922,0.07565l0.55114,-0.18576l0.1764,0.02223l3.25035,1.82228l0.97646,0.76323l2.30896,2.0742l1.41839,2.98352l-7.77515,2.4642l-2.04086,0.7249l-7.96885,-15.47376"
       id="svg_148" />
    <path
       d="m118.09494,39.63354l1.27051,3.79513l6.40771,8.65048l1.49035,2.49799l-3.25191,-1.04408l-5.04535,1.13603l-7.85707,-2.67969l-4.6645,-8.20112l11.65026,-4.15474"
       id="svg_149" />
    <path
       d="m104.8842,41.73246l1.56047,2.05582l4.6645,8.20112l-2.64457,1.53099l-0.51758,-0.08425l-2.05803,-0.69847l-0.54213,-0.34959l-0.27963,0.02031l-4.56479,2.64129l-4.07877,-1.58716l-2.28034,-7.18064l1.69729,-1.39157l9.04358,-3.15785"
       id="svg_150" />
    <path
       d="m93.22173,33.95905l2.6189,10.93126l-1.69729,1.39157l-0.93557,-0.87002l-2.30292,-1.88207l-1.43641,0.39668l-1.67263,0.25239l-0.44808,-0.18258l-0.76182,-0.54021l-1.1465,-1.01322l-0.33967,-6.36425l5.68524,-2.84913l2.43675,0.72958"
       id="svg_151" />
    <path
       d="m82.82626,32.8657l2.27348,3.2129l0.33967,6.36425l-6.88503,8.49422l-9.54406,-1.11028l3.4101,-8.08565l-1.18253,-3.90349l4.8447,-4.4824l6.74367,-0.48955"
       id="svg_152" />
    <path
       d="m74.73028,23.25786l1.35231,10.09739l-4.8447,4.4824l-8.6611,-7.9494l1.00033,-2.25472l2.93773,-0.45749l3.25397,-2.79656l4.96146,-1.12162"
       id="svg_153" />
    <path
       d="m45.30568,19.34199l7.27024,-0.52797l2.1534,0.34066l1.61612,1.11709l0.85254,0.69987l2.5265,3.71632l2.11742,3.38706l0.35957,1.12709l-5.45392,3.02218l-0.93043,0.74468l-7.19873,0.46597l-3.57013,0.35009l-0.12517,-1.60187l-0.61378,-6.7998l0.54958,-2.12974l1.05653,-1.06134l0.87806,-1.36599l0.02095,-0.14748l-0.09121,-0.1488l-1.41754,-1.18802"
       id="svg_154" />
    <path
       d="m56.07509,12.24541l7.28847,-0.5308l-1.58471,1.54856l-0.14871,0.2541l0.0255,0.24366l1.95328,6.38438l0.69838,0.50124l0.72519,-0.19261l-0.39205,4.89141l-1.06333,2.28818l-1.00033,2.25472l-0.37531,-0.68614l-0.35957,-1.12709l-2.11742,-3.38706l-2.5265,-3.71632l-0.85254,-0.69987l-1.61612,-1.11709l-2.1534,-0.34066l-7.27024,0.52797l-0.57476,-6.20441l11.34417,-0.89217"
       id="svg_155" />
    <path
       d="m68.05719,11.33419l2.60901,-0.22577l-0.26535,0.8499l1.15598,1.2091l2.25143,1.4056l1.1056,-0.03473l1.08488,0.68473l1.24154,3.30155l0.11119,1.17773l-2.6212,3.55556l-4.96146,1.12162l-3.25397,2.79656l-2.93773,0.45749l1.06333,-2.28818l0.39205,-4.89141l-0.72519,0.19261l-0.69838,-0.50124l-1.95328,-6.38438l-0.0255,-0.24366l0.14871,-0.2541l1.58471,-1.54856l4.69363,-0.38042"
       id="svg_156" />
    <path
       d="m77.35147,19.7023l3.71448,-0.66956l1.95444,1.24416l0.24079,0.4522l0.20859,1.18562l1.07381,8.93764l-1.71733,2.01334l-6.74367,0.48955l-1.35231,-10.09739l2.6212,-3.55556"
       id="svg_157" />
    <path
       d="m82.09707,17.89067l11.79582,3.99284l0.69648,1.28667l-3.80439,10.05929l-5.68524,2.84913l-2.27348,-3.2129l1.71733,-2.01334l-1.07381,-8.93764l-0.20859,-1.18562l-0.24079,-0.4522l-1.95444,-1.24416l1.03111,-1.14207"
       id="svg_158" />
    <path
       d="m106.25942,31.2661l2.34844,0.43248l0.43206,-0.19462l0.03316,-0.01301l1.53394,-0.30915l1.37363,-0.12072l0.78848,0.26266l0.37719,0.31339l-0.02,0.12583l1.1822,2.01387l3.78642,5.85671l-11.65026,4.15474l-1.56047,-2.05582l1.37521,-10.46636"
       id="svg_159" />
    <path
       d="m103.9968,29.53782l2.26262,1.72828l-1.37521,10.46636l-9.04358,3.15785l-2.6189,-10.93126l0.78296,-0.43623l0.29709,-0.08832l7.23965,-0.98542l2.45537,-2.91126"
       id="svg_160" />
    <path
       d="m94.58937,23.17018l9.40743,6.36764l-2.45537,2.91126l-7.23965,0.98542l-0.29709,0.08832l-0.78296,0.43623l-2.43675,-0.72958l3.80439,-10.05929"
       id="svg_161" />
    <ellipse
       rx="0.956432"
       ry="0.956432"
       stroke="#ffffff"
       id="svg_162"
       cy="63.782774"
       cx="62.519605"
       stroke-opacity="null"
       stroke-width="0.2"
       fill="#800080" />
    <ellipse
       rx="0.956432"
       ry="0.956432"
       stroke="#ffffff"
       id="svg_163"
       cy="138.538649"
       cx="202.22935"
       stroke-opacity="null"
       stroke-width="0"
       fill="#00ffff" />
    <ellipse
       rx="0.956432"
       ry="0.956432"
       stroke="#ffffff"
       id="svg_165"
       cy="70.117766"
       cx="63.654233"
       stroke-opacity="null"
       stroke-width="0"
       fill="#ff00ff" />
    <ellipse
       rx="0.956432"
       ry="0.956432"
       stroke="#ffffff"
       id="svg_166"
       cy="68.771799"
       cx="65.673185"
       stroke-opacity="null"
       stroke-width="0"
       fill="#ff00ff" />
    <ellipse
       rx="0.956432"
       ry="0.956432"
       stroke="#ffffff"
       id="svg_167"
       cy="69.375593"
       cx="61.545746"
       stroke-opacity="null"
       stroke-width="0"
       fill="#ff00ff" />
    <ellipse
       rx="0.956432"
       ry="0.956432"
       stroke="#ffffff"
       id="svg_168"
       cy="138.038665"
       cx="191.479682"
       stroke-opacity="null"
       stroke-width="0"
       fill="#ff00ff" />
    <ellipse
       rx="0.956432"
       ry="0.956432"
       stroke="#ffffff"
       id="svg_169"
       cy="60.996977"
       cx="57.916983"
       stroke-opacity="null"
       stroke-width="0"
       fill="#00ffff" />
    <ellipse
       rx="0.956432"
       ry="0.956432"
       stroke="#ffffff"
       id="svg_170"
       cy="74.669116"
       cx="57.901319"
       stroke-opacity="null"
       stroke-width="0.2"
       fill="#0000ff" />
    <ellipse
       rx="0.956432"
       ry="0.956432"
       stroke="#ffffff"
       id="svg_171"
       cy="67.17418"
       cx="63.851943"
       stroke-opacity="null"
       stroke-width="0.2"
       fill="#800080" />
    <ellipse
       rx="0.956432"
       ry="0.956432"
       stroke="#ffffff"
       id="svg_172"
       cy="70.568718"
       cx="58.522592"
       stroke-opacity="null"
       stroke-width="0.2"
       fill="#800080" />
  </g>
</svg>
